<?xml version="1.0" encoding="utf-8"?>
<!-- Generator: Adobe Illustrator 27.5.0, SVG Export Plug-In . SVG Version: 6.00 Build 0)  -->
<svg version="1.1" xmlns="http://www.w3.org/2000/svg" xmlns:xlink="http://www.w3.org/1999/xlink" x="0px" y="0px"
	 viewBox="0 0 750 500" style="enable-background:new 0 0 750 500;" xml:space="preserve">
<g id="BACKGROUND">
	<g>
		<defs>
			<rect id="SVGID_1_" x="-0.28" width="750" height="500"/>
		</defs>
		<clipPath id="SVGID_00000076587785511159687850000007660022606000071554_">
			<use xlink:href="#SVGID_1_"  style="overflow:visible;"/>
		</clipPath>
		<g style="clip-path:url(#SVGID_00000076587785511159687850000007660022606000071554_);">
			<rect style="fill:#FFFFFF;" width="750" height="393.438"/>
			<rect y="393.438" style="opacity:0.58;fill:#FFA18D;" width="750" height="106.562"/>
			<g style="opacity:0.16;">
				<g>
					<path style="fill:#FF886F;" d="M99.535,115.757c11.334-26.695,30.38-62.952,52.184-82.074
						c29.902-26.224,59.163-37.53,88.155-38.278c60.547-1.562,105.051,16.812,116.714,69.773
						c5.302,24.075-2.324,41.015-2.478,65.666c-0.154,24.652-8.335,53.005,7.826,71.621c22.747,26.202,62.374,28.74,96.807,24.461
						c34.433-4.279,69.963-13.285,103.141-3.127c50.148,15.354,88.791,80.782,79.622,132.42
						c-9.169,51.638-35.255,105.235-82.813,127.346c-47.557,22.111-126.721,24.742-180.379,25.363l-59.003-3.029
						c-92.41-11.891-165.203-54.326-207.001-128.978C70.513,302.267,62.931,201.972,99.535,115.757z"/>
					<ellipse style="fill:#FF886F;" cx="720.645" cy="12.505" rx="71.023" ry="65.053"/>
					<ellipse style="fill:#FF886F;" cx="-24.32" cy="150.988" rx="54.301" ry="49.737"/>
				</g>
			</g>
		</g>
	</g>
</g>
<g id="OBJECTS">
	<g>
		<g>
			<g>
				<g>
					<path style="fill:#FFD5CF;" d="M326.093,358.105c-5.826,13.712-13.381,25.83-22.163,35.684h-82.913
						c-3.341-3.755-6.51-7.851-9.474-12.232c-2.036-3.004-3.978-6.145-5.81-9.41c-1.753-3.106-3.491-6.304-4.938-9.729
						c-2.547-6.042-4.67-14.542-1.211-20.767c2.807-5.052,8.09-5.655,12.045-3.47c3.962,2.196,6.903,6.805,9.474,11.618
						c-2.131-7.726-3.601-15.794-4.356-24.044c-0.401-4.392-0.598-8.83-0.59-13.257c0.008-4.29,0.118-8.694,0.684-12.904
						c0.503-3.732,1.596-7.419,3.719-9.797c2.076-2.321,4.662-2.64,7.044-1.149c2.618,1.638,4.686,4.757,6.628,7.692
						c1.989,3.004,3.852,6.179,5.598,9.49c2.877,5.451,5.385,11.288,7.516,17.41c-1.179-9.012-1.164-18.331,0.055-27.355
						c0.652-4.791,1.643-9.479,2.948-13.974c1.179-4.028,2.547-8.056,4.607-11.311c1.8-2.845,4.277-5.132,7.044-4.699
						c2.642,0.41,4.639,3.072,6.046,6.167c1.706,3.744,2.736,8.136,3.766,12.335c1.227,4.995,2.288,10.07,3.192,15.214
						c1.549,8.875,2.595,17.933,3.145,27.059c1.227-7.795,3.286-15.305,6.101-22.189c1.47-3.585,3.137-6.998,4.992-10.196
						c1.753-3.027,3.852-6.042,6.525-7.26c2.209-1.001,4.631-0.193,6.164,2.378c1.447,2.424,1.981,5.712,2.217,8.819
						c0.33,4.267,0.181,8.659,0.063,12.938c-0.142,4.654-0.417,9.297-0.826,13.916c-0.77,8.591-2.013,17.068-3.703,25.364
						c4.049-6.349,8.931-11.561,14.348-15.214c4.34-2.936,11.133-6.645,14.655,0.33
						C332.304,342.743,328.821,351.687,326.093,358.105z"/>
					<path style="fill:#F9AA9D;" d="M318.828,349.213c-2.933,2.515-5.902,4.987-8.892,7.433c0.449-3.005,0.899-6.01,1.348-9.016
						c0.11-0.732-1.012-1.049-1.122-0.309c-0.52,3.474-1.039,6.947-1.558,10.42c-3.742,3.042-7.523,6.035-11.344,8.977l1.472-9.449
						c0.114-0.733-1.007-1.048-1.122-0.309c-0.561,3.598-1.121,7.196-1.682,10.794c-2.86,2.188-5.739,4.351-8.643,6.479
						c0.49-2.679,0.981-5.358,1.471-8.036c0.134-0.732-0.987-1.046-1.122-0.309c-0.569,3.108-1.138,6.216-1.707,9.324
						c0,0.002,0,0.004,0,0.005c-3.056,2.224-6.13,4.423-9.234,6.581c-3.784,2.632-7.608,5.206-11.46,7.738
						c3.003-7.006,5.911-14.053,8.719-21.138c0.009-0.005,0.018-0.003,0.026-0.008c3.111-1.91,6.222-3.82,9.332-5.731
						c0.637-0.391,0.053-1.398-0.587-1.005c-2.689,1.651-5.378,3.303-8.067,4.954c0.797-2.025,1.591-4.052,2.371-6.084
						c1.433-3.732,2.829-7.478,4.208-11.231c0.383-0.1,0.754-0.317,1.1-0.518c0.913-0.531,1.825-1.063,2.738-1.594
						c1.904-1.109,3.809-2.217,5.713-3.326c0.647-0.377,0.062-1.383-0.587-1.005l-4.761,2.772c-0.793,0.462-1.587,0.924-2.38,1.386
						c-0.247,0.144-0.772,0.535-1.283,0.817c2.191-6.002,4.32-12.027,6.369-18.079c0.18-0.53,0.351-1.063,0.529-1.594
						c0.124-0.014,0.249-0.052,0.359-0.138c2.334-1.812,4.669-3.624,7.004-5.436c0.591-0.459-0.238-1.277-0.823-0.823
						c-1.983,1.539-3.966,3.079-5.949,4.618c1.566-4.694,3.101-9.399,4.581-14.121c0.225-0.716-0.898-1.023-1.122-0.309
						c-1.384,4.414-2.814,8.814-4.272,13.203c-0.793-2.497-1.586-4.994-2.379-7.491c-0.226-0.711-1.35-0.407-1.122,0.309
						c0.96,3.022,1.92,6.044,2.88,9.066c-1.756,5.241-3.563,10.466-5.426,15.67c-0.62,1.731-1.267,3.452-1.899,5.179
						c-0.134-0.228-0.203-0.546-0.273-0.757c-0.144-0.436-0.287-0.872-0.43-1.307c-0.272-0.828-0.545-1.656-0.818-2.484
						c-0.588-1.787-1.176-3.573-1.764-5.36c-0.233-0.708-1.357-0.405-1.122,0.309l2.022,6.144c0.33,1.002,0.657,2.005,0.99,3.007
						c0.198,0.594,0.428,1.262,0.956,1.646c-2.071,5.636-4.183,11.257-6.378,16.845c-0.954-3.091-1.909-6.182-2.863-9.273
						c-0.22-0.713-1.344-0.409-1.122,0.309c1.1,3.562,2.2,7.125,3.3,10.687c-0.709,1.794-1.417,3.588-2.139,5.376
						c-2.098,5.196-4.257,10.367-6.462,15.519c-0.377-12.546-0.755-25.091-1.132-37.637c2.422-5.171,4.843-10.343,7.265-15.514
						c0.316-0.674-0.687-1.266-1.005-0.587c-2.112,4.511-4.225,9.022-6.338,13.533c-0.011-0.361-0.022-0.723-0.033-1.084
						l-0.548-18.237c2.428-5.043,4.857-10.086,7.285-15.129c0.323-0.671-0.68-1.262-1.005-0.587
						c-2.119,4.4-4.237,8.799-6.356,13.199c-0.213-7.07-0.425-14.141-0.638-21.211c-0.008-0.275-0.017-0.55-0.025-0.825
						c2.059-3.689,4.118-7.378,6.177-11.067c0.365-0.655-0.639-1.242-1.005-0.587c-1.747,3.13-3.493,6.259-5.24,9.389
						c-0.206-6.86-0.412-13.719-0.619-20.579c-0.022-0.747-1.186-0.75-1.164,0c0.214,7.117,0.428,14.233,0.642,21.35
						c-2.43-2.763-4.86-5.525-7.29-8.287c-0.496-0.563-1.316,0.262-0.823,0.823c2.722,3.095,5.445,6.19,8.168,9.285l0.569,18.94
						c0.046,1.54,0.093,3.081,0.139,4.621c-2.61-3.218-5.219-6.437-7.829-9.655c-0.472-0.582-1.291,0.246-0.823,0.823
						c2.834,3.495,5.668,6.991,8.503,10.486c0.053,0.065,0.125,0.107,0.203,0.134c0.185,6.143,0.369,12.287,0.554,18.43
						c-2.553-3.716-5.106-7.432-7.659-11.149c-0.421-0.613-1.43-0.032-1.005,0.587c2.91,4.235,5.819,8.47,8.728,12.705l0.45,14.981
						c0.212,7.049,0.424,14.098,0.636,21.146c-4.406-8.407-8.596-16.926-12.553-25.553c0.17-3.64,0.341-7.28,0.511-10.92
						c0.035-0.749-1.128-0.747-1.164,0c-0.134,2.868-0.269,5.736-0.403,8.604c-3.336-7.37-6.505-14.815-9.505-22.328
						c0.55-5.018,1.099-10.036,1.649-15.054c0.081-0.743-1.083-0.738-1.164,0c-0.465,4.247-0.93,8.495-1.396,12.742
						c-0.494-1.254-0.997-2.504-1.482-3.762c-2.18-5.657-4.261-11.351-6.25-17.078c-0.244-0.703-1.369-0.401-1.122,0.309
						c2.527,7.279,5.215,14.501,8.049,21.665c-3.143-2.18-6.286-4.359-9.429-6.539c-0.617-0.428-1.199,0.581-0.587,1.005
						l10.791,7.483c0.888,2.218,1.784,4.432,2.701,6.637c2.309,5.553,4.72,11.064,7.213,16.538c-3.09-1.99-6.179-3.979-9.269-5.969
						c-0.631-0.407-1.215,0.6-0.587,1.005c3.513,2.262,7.025,4.524,10.538,6.785c0.059,0.038,0.12,0.039,0.181,0.052
						c1.692,3.678,3.411,7.344,5.186,10.983c2.563,5.257,5.218,10.468,7.951,15.639c-8.052-3.623-15.931-7.624-23.608-11.982
						c-0.004-0.599-0.356-1.198-0.618-1.719c-0.56-1.111-1.119-2.223-1.679-3.334c-1.076-2.137-2.152-4.275-3.229-6.412
						c-0.337-0.669-1.341-0.081-1.005,0.587c0.926,1.838,1.851,3.676,2.777,5.514c0.452,0.898,0.904,1.795,1.356,2.693
						c0.237,0.47,0.474,0.94,0.71,1.41c0.057,0.114,0.151,0.264,0.243,0.426c-4.246-2.443-8.433-4.987-12.547-7.647
						c0.005-0.064,0.011-0.128-0.014-0.201c-1.394-4.024-2.788-8.049-4.183-12.073c-0.244-0.703-1.368-0.401-1.122,0.309
						c1.267,3.658,2.535,7.317,3.802,10.975c-0.641-0.42-1.288-0.831-1.926-1.257c-3.832-2.559-7.6-5.214-11.303-7.956
						c-0.602-0.446-1.183,0.564-0.587,1.005c4.138,3.064,8.368,6.003,12.666,8.837c-3.234,0.414-6.468,0.827-9.702,1.241
						c-0.733,0.094-0.742,1.259,0,1.164c3.726-0.477,7.452-0.953,11.178-1.43c4.424,2.878,8.928,5.633,13.504,8.262
						c-0.285,0.078-0.638,0.107-0.834,0.148c-0.52,0.109-1.041,0.218-1.561,0.327c-0.993,0.208-1.986,0.416-2.979,0.623
						c-2.081,0.435-4.162,0.871-6.243,1.306c-0.732,0.153-0.423,1.275,0.309,1.122c2.365-0.495,4.729-0.989,7.094-1.484
						c1.182-0.247,2.364-0.495,3.547-0.742c0.607-0.127,1.35-0.23,1.844-0.644c4.13,2.346,8.312,4.602,12.557,6.735
						c4.1,2.06,8.252,4.017,12.447,5.876c0.04,0.386,0.427,0.735,0.843,0.463c7.472-4.887,14.82-9.962,22.035-15.22l10.015,1.674
						c0.732,0.123,1.047-0.999,0.309-1.122c-3.009-0.503-6.018-1.006-9.028-1.509c2.915-2.138,5.798-4.318,8.67-6.514
						c3.576,0.035,7.152,0.07,10.728,0.105c0.749,0.007,0.75-1.156,0-1.164c-3.069-0.03-6.137-0.06-9.206-0.09
						c3.284-2.53,6.54-5.097,9.763-7.705c0.271-0.219,0.538-0.444,0.808-0.664c0.061,0.021,0.122,0.045,0.198,0.037
						c3.145-0.33,6.289-0.66,9.434-0.989c0.737-0.077,0.745-1.242,0-1.164c-2.696,0.283-5.392,0.565-8.088,0.848
						c3.102-2.54,6.182-5.106,9.226-7.715C320.22,349.547,319.393,348.728,318.828,349.213z"/>
				</g>
				<g>
					<path style="fill:#FFD5CF;" d="M497.435,365.347c-4.757,11.197-10.927,21.092-18.098,29.139h-67.705
						c-2.729-3.066-5.316-6.411-7.736-9.989c-1.663-2.453-3.249-5.018-4.744-7.684c-1.432-2.537-2.851-5.148-4.032-7.945
						c-2.08-4.934-3.814-11.875-0.989-16.958c2.292-4.126,6.606-4.618,9.835-2.834c3.236,1.793,5.637,5.557,7.736,9.487
						c-1.74-6.309-2.94-12.897-3.557-19.634c-0.327-3.587-0.488-7.211-0.482-10.825c0.007-3.503,0.096-7.099,0.559-10.537
						c0.411-3.048,1.303-6.058,3.037-8c1.695-1.896,3.807-2.156,5.752-0.939c2.138,1.338,3.826,3.884,5.412,6.281
						c1.624,2.453,3.146,5.046,4.571,7.75c2.35,4.451,4.398,9.217,6.138,14.216c-0.963-7.359-0.95-14.969,0.045-22.338
						c0.533-3.912,1.342-7.74,2.408-11.41c0.963-3.289,2.08-6.579,3.762-9.236c1.47-2.323,3.492-4.191,5.752-3.838
						c2.157,0.335,3.788,2.509,4.937,5.036c1.393,3.057,2.234,6.644,3.075,10.072c1.001,4.079,1.868,8.223,2.607,12.423
						c1.265,7.248,2.119,14.644,2.568,22.096c1.001-6.365,2.684-12.498,4.982-18.119c1.201-2.927,2.562-5.715,4.077-8.326
						c1.432-2.472,3.146-4.934,5.329-5.928c1.804-0.818,3.781-0.158,5.033,1.942c1.181,1.979,1.618,4.664,1.81,7.201
						c0.27,3.484,0.148,7.071,0.051,10.565c-0.116,3.8-0.34,7.591-0.674,11.364c-0.629,7.015-1.644,13.938-3.024,20.711
						c3.306-5.185,7.293-9.44,11.716-12.423c3.544-2.397,9.091-5.427,11.967,0.27C502.507,352.803,499.663,360.106,497.435,365.347z
						"/>
					<path style="fill:#F9AA9D;" d="M491.502,358.086c-2.395,2.053-4.82,4.072-7.261,6.07c0.367-2.454,0.734-4.908,1.101-7.362
						c0.09-0.598-0.826-0.856-0.916-0.253c-0.424,2.836-0.848,5.673-1.272,8.509c-3.056,2.484-6.143,4.928-9.263,7.33l1.202-7.716
						c0.093-0.598-0.822-0.856-0.916-0.253c-0.458,2.938-0.916,5.876-1.373,8.814c-2.336,1.786-4.686,3.553-7.058,5.291
						c0.401-2.188,0.801-4.375,1.202-6.563c0.109-0.598-0.806-0.854-0.916-0.253c-0.465,2.538-0.929,5.076-1.394,7.613
						c0,0.001,0,0.003,0,0.004c-2.495,1.816-5.006,3.612-7.54,5.374c-3.09,2.149-6.213,4.251-9.358,6.319
						c2.453-5.721,4.826-11.475,7.12-17.261c0.007-0.004,0.014-0.003,0.021-0.007c2.54-1.56,5.08-3.12,7.621-4.68
						c0.52-0.319,0.043-1.142-0.48-0.82c-2.196,1.349-4.392,2.697-6.587,4.045c0.651-1.654,1.299-3.309,1.937-4.968
						c1.171-3.047,2.311-6.106,3.436-9.171c0.313-0.082,0.616-0.259,0.898-0.423c0.745-0.434,1.49-0.868,2.236-1.301
						c1.555-0.905,3.11-1.811,4.665-2.716c0.528-0.307,0.05-1.129-0.48-0.82l-3.888,2.263c-0.648,0.377-1.296,0.755-1.944,1.132
						c-0.202,0.117-0.63,0.436-1.048,0.667c1.789-4.901,3.528-9.821,5.201-14.763c0.147-0.433,0.287-0.868,0.432-1.302
						c0.101-0.012,0.203-0.042,0.294-0.113c1.906-1.48,3.813-2.959,5.719-4.439c0.483-0.375-0.194-1.043-0.672-0.672
						c-1.619,1.257-3.239,2.514-4.858,3.771c1.279-3.833,2.532-7.675,3.741-11.531c0.184-0.585-0.734-0.835-0.916-0.253
						c-1.13,3.604-2.297,7.197-3.488,10.781c-0.648-2.039-1.295-4.078-1.943-6.117c-0.184-0.581-1.102-0.333-0.916,0.253
						c0.784,2.468,1.568,4.935,2.351,7.403c-1.434,4.28-2.91,8.546-4.431,12.796c-0.506,1.414-1.035,2.819-1.551,4.229
						c-0.109-0.186-0.166-0.446-0.223-0.618c-0.118-0.356-0.234-0.712-0.351-1.067c-0.222-0.676-0.445-1.352-0.668-2.028
						c-0.48-1.459-0.96-2.918-1.441-4.376c-0.19-0.578-1.108-0.331-0.916,0.253l1.652,5.017c0.269,0.818,0.536,1.638,0.808,2.455
						c0.161,0.485,0.35,1.031,0.781,1.344c-1.691,4.602-3.416,9.192-5.208,13.756c-0.78-2.524-1.559-5.048-2.338-7.573
						c-0.18-0.583-1.097-0.334-0.916,0.253c0.898,2.909,1.797,5.818,2.695,8.727c-0.579,1.465-1.157,2.93-1.747,4.39
						c-1.713,4.243-3.476,8.466-5.276,12.673c-0.308-10.244-0.616-20.489-0.924-30.733c1.978-4.223,3.955-8.446,5.933-12.668
						c0.258-0.551-0.561-1.034-0.821-0.48c-1.725,3.684-3.45,7.367-5.175,11.051c-0.009-0.295-0.018-0.59-0.027-0.885l-0.448-14.892
						c1.983-4.118,3.966-8.236,5.949-12.354c0.264-0.548-0.555-1.031-0.821-0.48c-1.73,3.593-3.46,7.185-5.19,10.778
						c-0.174-5.773-0.347-11.547-0.521-17.321c-0.007-0.224-0.014-0.449-0.02-0.673c1.681-3.012,3.363-6.025,5.044-9.037
						c0.298-0.535-0.522-1.014-0.821-0.48c-1.426,2.556-2.853,5.111-4.279,7.667c-0.168-5.602-0.337-11.203-0.505-16.804
						c-0.018-0.61-0.969-0.613-0.95,0c0.175,5.811,0.35,11.622,0.524,17.434c-1.984-2.256-3.969-4.512-5.953-6.767
						c-0.405-0.46-1.074,0.214-0.672,0.672c2.223,2.527,4.446,5.055,6.67,7.582l0.465,15.466c0.038,1.258,0.076,2.516,0.114,3.773
						c-2.131-2.628-4.262-5.256-6.393-7.884c-0.385-0.475-1.054,0.201-0.672,0.672c2.314,2.854,4.628,5.708,6.943,8.563
						c0.043,0.053,0.102,0.087,0.166,0.11c0.151,5.017,0.301,10.033,0.452,15.05c-2.085-3.035-4.169-6.069-6.254-9.104
						c-0.344-0.501-1.168-0.026-0.821,0.479c2.376,3.458,4.752,6.917,7.127,10.375l0.368,12.233
						c0.173,5.756,0.346,11.512,0.519,17.268c-3.598-6.865-7.02-13.821-10.251-20.866c0.139-2.972,0.278-5.945,0.418-8.917
						c0.029-0.611-0.922-0.61-0.95,0c-0.11,2.342-0.219,4.684-0.329,7.026c-2.724-6.018-5.312-12.097-7.761-18.232
						c0.449-4.098,0.898-8.195,1.346-12.293c0.066-0.607-0.884-0.602-0.95,0c-0.38,3.468-0.76,6.937-1.14,10.405
						c-0.403-1.024-0.814-2.045-1.21-3.072c-1.78-4.619-3.48-9.269-5.103-13.946c-0.199-0.574-1.117-0.327-0.916,0.253
						c2.063,5.944,4.258,11.841,6.573,17.691c-2.567-1.78-5.133-3.56-7.7-5.339c-0.504-0.349-0.979,0.474-0.479,0.82l8.812,6.11
						c0.725,1.811,1.457,3.619,2.206,5.42c1.886,4.535,3.855,9.035,5.89,13.505c-2.523-1.625-5.046-3.249-7.569-4.874
						c-0.516-0.332-0.993,0.49-0.48,0.821c2.868,1.847,5.737,3.694,8.605,5.541c0.048,0.031,0.098,0.032,0.148,0.043
						c1.382,3.004,2.786,5.997,4.235,8.969c2.093,4.292,4.261,8.548,6.492,12.77c-6.575-2.959-13.009-6.226-19.278-9.784
						c-0.003-0.489-0.29-0.978-0.504-1.404c-0.457-0.908-0.914-1.815-1.371-2.722c-0.879-1.745-1.758-3.491-2.636-5.236
						c-0.275-0.546-1.095-0.066-0.82,0.48c0.756,1.501,1.512,3.002,2.267,4.503c0.369,0.733,0.738,1.466,1.107,2.199
						c0.193,0.384,0.387,0.768,0.58,1.152c0.047,0.093,0.124,0.215,0.198,0.348c-3.467-1.995-6.886-4.072-10.246-6.245
						c0.004-0.053,0.009-0.105-0.011-0.164c-1.138-3.286-2.277-6.573-3.415-9.859c-0.199-0.574-1.117-0.327-0.916,0.253
						c1.035,2.987,2.07,5.975,3.104,8.962c-0.523-0.343-1.052-0.679-1.572-1.026c-3.129-2.09-6.206-4.257-9.23-6.496
						c-0.492-0.364-0.966,0.46-0.48,0.82c3.379,2.502,6.834,4.902,10.343,7.216c-2.641,0.338-5.282,0.676-7.923,1.013
						c-0.598,0.077-0.606,1.028,0,0.95c3.043-0.389,6.085-0.778,9.128-1.168c3.613,2.35,7.29,4.6,11.027,6.746
						c-0.233,0.064-0.521,0.087-0.681,0.121c-0.425,0.089-0.85,0.178-1.274,0.267c-0.811,0.17-1.622,0.339-2.433,0.509
						c-1.699,0.355-3.398,0.711-5.098,1.067c-0.598,0.125-0.345,1.041,0.253,0.916c1.931-0.404,3.862-0.808,5.793-1.212
						c0.966-0.202,1.931-0.404,2.896-0.606c0.496-0.104,1.102-0.188,1.506-0.526c3.372,1.916,6.787,3.758,10.254,5.5
						c3.348,1.682,6.739,3.28,10.164,4.798c0.032,0.315,0.349,0.6,0.689,0.378c6.101-3.991,12.101-8.135,17.993-12.428l8.178,1.367
						c0.598,0.1,0.855-0.815,0.253-0.916c-2.457-0.411-4.915-0.822-7.372-1.232c2.38-1.746,4.735-3.526,7.08-5.319
						c2.92,0.029,5.84,0.057,8.761,0.086c0.612,0.006,0.612-0.944,0-0.95c-2.506-0.025-5.012-0.049-7.517-0.074
						c2.682-2.066,5.341-4.162,7.972-6.292c0.221-0.179,0.439-0.363,0.66-0.542c0.05,0.017,0.099,0.036,0.162,0.03
						c2.568-0.269,5.136-0.538,7.704-0.808c0.602-0.063,0.608-1.014,0-0.95c-2.201,0.231-4.403,0.462-6.604,0.693
						c2.533-2.074,5.048-4.169,7.534-6.3C492.639,358.359,491.964,357.69,491.502,358.086z"/>
				</g>
			</g>
			<g>
				<path style="opacity:0.42;fill:#FFA18D;" d="M431.689,441.744c0,3.848-26.686,6.967-59.606,6.967
					c-32.919,0-59.606-3.119-59.606-6.967s26.686-6.966,59.606-6.966C405.002,434.778,431.689,437.897,431.689,441.744z"/>
				<g>
					<g>
						<g>
							<path style="fill:#F05448;" d="M243.207,144.674c35.032-40.536,80.071-64.557,130.118-64.557
								c66.559,0,119.105,35.031,119.105,102.591c0,65.059-79.573,81.073-79.573,111.1v27.524h-92.58l-0.502-40.036
								c0-46.041,79.57-72.064,79.57-99.588c0-19.017-19.517-23.521-37.033-23.521c-21.518,0-48.04,21.019-65.058,41.038
								L243.207,144.674z M363.814,333.84c35.531,0,59.554,24.525,59.554,53.047c0,28.027-23.02,51.548-59.554,51.548
								c-32.527,0-57.049-25.525-57.049-51.548C306.765,361.867,327.784,333.84,363.814,333.84z"/>
						</g>
						<polygon style="fill:#F05448;" points="297.254,199.224 308.806,199.224 297.048,187.357 						"/>
					</g>
					<g>
						<path style="fill:#FF886F;" d="M254.758,144.674c35.032-40.536,80.071-64.557,130.118-64.557
							c66.559,0,119.105,35.031,119.105,102.591c0,65.059-79.573,81.073-79.573,111.1v27.524h-92.58l-0.502-40.036
							c0-46.041,79.57-72.064,79.57-99.588c0-19.017-19.517-23.521-37.033-23.521c-21.518,0-48.04,21.019-65.057,41.038
							L254.758,144.674z M375.365,333.84c35.531,0,59.554,24.525,59.554,53.047c0,28.027-23.02,51.548-59.554,51.548
							c-32.527,0-57.049-25.525-57.049-51.548C318.317,361.867,339.335,333.84,375.365,333.84z"/>
					</g>
				</g>
			</g>
		</g>
		<g>
			<path style="fill:none;stroke:#4376CF;stroke-miterlimit:10;" d="M284.072,214.725c0.629-3.137,2.263-5.711,4.865-7.183
				c3.46-1.958,7.222-1.682,9.209,1.83c1.914,3.382-1.752,6.555-0.869,8.116l0.81,1.431l-4.812,2.723l-1.204-2.066
				c-1.354-2.393,2.017-6.086,1.207-7.517c-0.559-0.988-1.706-0.649-2.617-0.133c-1.118,0.633-1.879,2.506-2.175,4.047
				L284.072,214.725z M296.578,222.2c1.847-1.045,3.817-0.477,4.656,1.006c0.824,1.457,0.32,3.357-1.58,4.431
				c-1.691,0.957-3.716,0.351-4.482-1.002C294.437,225.335,294.705,223.26,296.578,222.2z"/>
			<path style="fill:#4376CF;" d="M134.879,285.59c2.237-2.588,5.113-4.122,8.309-4.122c4.25,0,7.605,2.237,7.605,6.551
				c0,4.154-5.081,5.177-5.081,7.094v1.758H139.8l-0.032-2.556c0-2.94,5.081-4.602,5.081-6.359c0-1.214-1.246-1.502-2.365-1.502
				c-1.374,0-3.068,1.342-4.154,2.621L134.879,285.59z M142.58,299.131c2.269,0,3.803,1.566,3.803,3.387
				c0,1.79-1.47,3.292-3.803,3.292c-2.077,0-3.643-1.63-3.643-3.292C138.937,300.921,140.279,299.131,142.58,299.131z"/>
			<path style="fill:none;stroke:#4376CF;stroke-miterlimit:10;" d="M46.599,269.184c-0.943,3.083-2.838,5.501-5.593,6.718
				c-3.664,1.618-7.408,0.968-9.051-2.751c-1.582-3.581,2.409-6.398,1.679-8.051l-0.669-1.515l5.096-2.251l1.001,2.192
				c1.119,2.534-2.628,5.902-1.959,7.417c0.462,1.047,1.646,0.82,2.611,0.394c1.185-0.523,2.133-2.325,2.583-3.841L46.599,269.184z
				 M34.804,260.444c-1.956,0.864-3.875,0.098-4.568-1.472c-0.681-1.543,0.014-3.397,2.025-4.286
				c1.791-0.791,3.761,0.018,4.394,1.45C37.263,257.514,36.787,259.568,34.804,260.444z"/>
			<path style="fill:#FF886F;" d="M523.053,165.631c2.828-1.548,5.873-1.955,8.694-0.902c3.753,1.4,5.978,4.481,4.557,8.29
				c-1.369,3.668-6.192,2.896-6.824,4.589l-0.579,1.552l-5.22-1.948l0.814-2.268c0.969-2.596,6.003-2.389,6.582-3.94
				c0.4-1.072-0.605-1.737-1.593-2.105c-1.213-0.453-3.151,0.174-4.531,0.945L523.053,165.631z M525.391,180.124
				c2.003,0.748,2.842,2.636,2.241,4.244c-0.59,1.58-2.383,2.422-4.442,1.653c-1.834-0.684-2.679-2.64-2.132-4.107
				C521.585,180.504,523.359,179.366,525.391,180.124z"/>
			<path style="fill:#4376CF;" d="M641.546,246.822c-0.943,3.083-2.838,5.501-5.593,6.718c-3.664,1.618-7.408,0.968-9.051-2.751
				c-1.582-3.581,2.409-6.398,1.679-8.051l-0.669-1.515l5.096-2.251l1.001,2.192c1.12,2.535-2.628,5.902-1.959,7.417
				c0.462,1.047,1.646,0.82,2.611,0.394c1.185-0.523,2.133-2.325,2.583-3.841L641.546,246.822z M629.75,238.082
				c-1.956,0.864-3.875,0.098-4.568-1.472c-0.681-1.543,0.014-3.397,2.025-4.286c1.791-0.791,3.761,0.018,4.394,1.45
				C632.209,235.152,631.734,237.206,629.75,238.082z"/>
			<path style="fill:none;stroke:#FF886F;stroke-miterlimit:10;" d="M240.235,67.927c1.439-3.835,4.034-6.751,7.623-8.076
				c4.774-1.763,9.47-0.641,11.259,4.204c1.723,4.666-3.561,7.922-2.766,10.076l0.729,1.974l-6.64,2.451l-1.096-2.858
				c-1.219-3.302,3.799-7.276,3.07-9.25c-0.504-1.364-2.023-1.17-3.279-0.707c-1.543,0.57-2.889,2.78-3.58,4.666L240.235,67.927z
				 M254.5,79.944c2.548-0.941,4.921,0.182,5.676,2.228c0.742,2.01-0.286,4.307-2.906,5.274c-2.333,0.861-4.768-0.32-5.457-2.187
				C251.15,83.465,251.916,80.898,254.5,79.944z"/>
			<path style="fill:#FF886F;" d="M92.612,145.151c1.439-3.835,4.034-6.751,7.623-8.076c4.774-1.762,9.47-0.641,11.259,4.205
				c1.723,4.666-3.561,7.922-2.766,10.076l0.729,1.974l-6.64,2.452l-1.096-2.858c-1.219-3.302,3.799-7.276,3.07-9.25
				c-0.503-1.364-2.023-1.17-3.279-0.706c-1.543,0.57-2.889,2.78-3.58,4.666L92.612,145.151z M106.878,157.167
				c2.549-0.941,4.921,0.182,5.676,2.228c0.742,2.01-0.286,4.307-2.907,5.274c-2.333,0.861-4.768-0.32-5.457-2.187
				C103.528,160.688,104.293,158.122,106.878,157.167z"/>
			<path style="fill:none;stroke:#4376CF;stroke-miterlimit:10;" d="M572.383,97.535c0.447-4.659,2.443-8.648,6.009-11.177
				c4.743-3.364,10.258-3.524,13.673,1.29c3.289,4.636-1.572,9.799-0.055,11.939l1.391,1.961l-6.597,4.68l-2.06-2.828
				c-2.327-3.281,2.027-9.157,0.636-11.119c-0.961-1.355-2.58-0.69-3.828,0.196c-1.533,1.088-2.361,3.926-2.562,6.213
				L572.383,97.535z M591.696,106.55c2.532-1.796,5.484-1.263,6.925,0.77c1.417,1.997,0.965,4.837-1.638,6.684
				c-2.318,1.644-5.355,1.065-6.671-0.79C589.048,111.431,589.129,108.371,591.696,106.55z"/>
			<path style="fill:#FF886F;" d="M656.262,116.154c4.677-0.194,8.901,1.237,11.894,4.424c3.981,4.239,4.894,9.68,0.591,13.721
				c-4.143,3.891-9.922-0.218-11.834,1.578l-1.753,1.646l-5.538-5.896l2.519-2.427c2.932-2.754,9.349,0.757,11.101-0.89
				c1.211-1.137,0.33-2.65-0.717-3.765c-1.287-1.37-4.212-1.802-6.505-1.688L656.262,116.154z M649.973,136.519
				c2.125,2.263,2,5.259,0.184,6.965c-1.785,1.676-4.659,1.617-6.845-0.709c-1.946-2.071-1.787-5.16-0.13-6.716
				C644.776,134.562,647.818,134.224,649.973,136.519z"/>
			<path style="fill:none;stroke:#4376CF;stroke-miterlimit:10;" d="M82.706,41.907c3.02-0.678,5.938-0.245,8.261,1.475
				c3.091,2.288,4.326,5.721,2.004,8.859c-2.237,3.021-6.482,1.029-7.514,2.423l-0.946,1.278l-4.299-3.183l1.353-1.876
				c1.583-2.138,6.172-0.611,7.119-1.889c0.654-0.883-0.098-1.763-0.911-2.365c-0.999-0.74-2.953-0.676-4.432-0.331L82.706,41.907z
				 M81.016,55.9c1.65,1.222,1.922,3.186,0.942,4.511c-0.964,1.301-2.841,1.602-4.538,0.346c-1.51-1.118-1.772-3.146-0.877-4.355
				C77.404,55.24,79.343,54.661,81.016,55.9z"/>
			<path style="fill:#4376CF;" d="M499.114,36.139c3.02-0.678,5.938-0.245,8.261,1.476c3.091,2.288,4.326,5.721,2.004,8.858
				c-2.237,3.021-6.482,1.029-7.514,2.423l-0.946,1.278l-4.299-3.183l1.353-1.876c1.583-2.138,6.172-0.611,7.118-1.889
				c0.654-0.883-0.098-1.763-0.911-2.365c-0.999-0.74-2.953-0.675-4.432-0.331L499.114,36.139z M497.424,50.133
				c1.65,1.221,1.922,3.186,0.942,4.511c-0.963,1.301-2.841,1.602-4.537,0.346c-1.51-1.118-1.772-3.146-0.877-4.355
				C493.811,49.473,495.751,48.894,497.424,50.133z"/>
			<path style="fill:#4376CF;" d="M698.401,245.541c3.02-0.678,5.938-0.245,8.261,1.476c3.091,2.288,4.326,5.721,2.004,8.859
				c-2.237,3.021-6.482,1.029-7.514,2.423l-0.946,1.278l-4.299-3.183l1.353-1.876c1.583-2.138,6.172-0.611,7.119-1.889
				c0.654-0.883-0.098-1.763-0.911-2.365c-0.999-0.74-2.953-0.675-4.432-0.331L698.401,245.541z M696.712,259.534
				c1.65,1.221,1.922,3.186,0.942,4.511c-0.964,1.301-2.841,1.602-4.538,0.346c-1.51-1.118-1.771-3.147-0.877-4.355
				C693.099,258.875,695.039,258.296,696.712,259.534z"/>
		</g>
		<g>
			<g>
				<g>
					<g>
						<path style="fill:#18252D;" d="M431.469,448.537c-0.189,0-0.38-0.031-0.568-0.096c-0.909-0.314-1.391-1.304-1.077-2.212
							l47.085-136.238c0.313-0.908,1.304-1.391,2.212-1.076c0.909,0.314,1.39,1.305,1.077,2.213l-47.085,136.238
							C432.864,448.085,432.19,448.537,431.469,448.537z"/>
					</g>
					<g>
						<path style="fill:#18252D;" d="M544.006,449.181c-0.729,0-1.408-0.462-1.651-1.191l-56.356-169.381H470.34l52.671,167.666
							c0.288,0.917-0.222,1.893-1.138,2.182c-0.917,0.288-1.894-0.221-2.182-1.138L466.31,277.39
							c-0.166-0.529-0.07-1.104,0.258-1.551c0.327-0.447,0.848-0.71,1.402-0.71h19.284c0.749,0,1.414,0.48,1.651,1.191
							l56.753,170.572c0.304,0.912-0.19,1.897-1.102,2.2C544.373,449.152,544.188,449.181,544.006,449.181z"/>
					</g>
					<rect x="470.526" y="332.174" style="fill:#18252D;" width="14.954" height="3.144"/>
					<rect x="493.488" y="358.763" style="fill:#4376CF;" width="29.236" height="3.392"/>
					<rect x="500.098" y="378.565" style="fill:#4376CF;" width="29.236" height="3.392"/>
					<rect x="504.801" y="394.03" style="fill:#4376CF;" width="29.236" height="3.392"/>
					<rect x="488.347" y="338.961" style="fill:#4376CF;" width="29.236" height="3.392"/>
				</g>
				<g>
					<path style="fill:#18252D;" d="M531.269,379.292l-2.314,0.313l-9.019,1.224v0.006l-1.728,0.232l-1.288-9.332l-6.768-43.492
						c5.208-3.88,14.233-10.88,18.913-16.187l-3.758,30.959L531.269,379.292z"/>
					<path style="fill:#4376CF;" d="M528.954,379.606l1.125,13.258l-2.355,0.255l-0.365-6.635l-2.146,6.913l-11.309,0.632
						c0,0-0.325-3.161,4.083-5.771l1.949-7.424v-0.006L528.954,379.606z"/>
					<path style="fill:#4376CF;" d="M516.787,363.21l4.564,13.02l-2.279,0.644l-2.152-5.139l-0.481-1.148l-0.969,7.174l-11.043,2.5
						c0,0-0.847-3.062,3.062-6.368l0.418-6.154C511.155,366.765,514.722,364.59,516.787,363.21z"/>
					<path style="fill:#18252D;" d="M507.907,367.739c-1.131,0.331-2.221,0.522-3.196,0.481c0,0-14.934-35.79-15.74-38.157
						c-0.806-2.366,16.135-26.87,16.135-26.87c-0.905-2.842-1.52-5.84-1.92-8.792c-0.342-2.482-0.534-4.936-0.626-7.227h2.071
						l0.162,0.006l-0.128,5.933c0,0,11.93,7.018,13.867,7.661c1.375,0.458,9.036-4.767,13.369-7.841c0,0,3.99,11.379-2.836,19.122
						c-4.68,5.307-13.705,12.307-18.913,16.187c-2.39,1.775-3.979,2.894-3.979,2.894l6.902,17.225l5.458,13.624
						c0,0-0.667,0.505-1.746,1.224C514.722,364.59,511.155,366.765,507.907,367.739z"/>
					<g>
						<path style="fill:#4376CF;" d="M500.739,250.799c-0.07,0.296-0.11,0.563-0.11,0.8c-0.035,3.671,1.618,5.081,1.618,5.081
							l0.69,17.33v0.006c0,0-0.696,5.765-0.377,13.16c0.093,2.291,0.284,4.744,0.626,7.227l-3.254-1.607l1.346-18.043l-1.734-23.738
							c-2.68,0.476-7.778,1.259-10.167,0.853c-3.335-0.563-19.22-12.493-19.22-12.493l0.232-0.435l2.97-5.608l0.302-0.574
							l16.616,8.688l18.907-5.724l0.046,0.006l-0.046,0.394C509.183,236.12,501.725,246.466,500.739,250.799z"/>
						<path style="fill:#FFFFFF;" d="M505.106,273.041l-0.313,14.14l-0.162-0.006h-2.071c-0.307-7.134-0.313-28.894-0.313-30.414
							v-0.081c0,0-1.653-1.409-1.618-5.081c0-0.238,0.041-0.505,0.11-0.8c0.986-4.333,8.445-14.679,8.445-14.679
							s0.528,3.538,10.613-3.642C504.201,245.138,505.106,273.041,505.106,273.041z"/>
						<path style="fill:#4376CF;" d="M529.36,255.189c-0.238,7.598-1.154,15.033-1.154,15.033l6.693,20.554
							c0,0-1.218,0.899-2.998,2.158c-4.332,3.074-11.994,8.299-13.369,7.841c-1.937-0.644-13.867-7.661-13.867-7.661l0.128-5.933
							l0.313-14.14l-2.169,0.969l-1.659,0.742l-16.199,7.238c0,0-0.273-0.186-0.69-0.534c-1.09-0.91-3.143-2.946-3.822-5.782
							c-0.076-0.302-0.133-0.615-0.168-0.94l20.23-11.663l1.543-0.887l1.125-0.65c0,0,0.905-16.396,16.5-29.057
							c0,0,7.725,2.836,9.135,11.623C529.419,247.133,529.482,251.182,529.36,255.189z"/>
						<path style="fill:#FFA18D;" d="M476.589,284.031c-1.079,1.247-2.158,2.5-3.236,3.753c-0.157,0.18-0.319,0.371-0.534,0.47
							c-0.22,0.104-0.505,0.104-0.673-0.07c-0.18-0.186-0.162-0.47-0.122-0.725c0.133-0.806,0.406-1.589,0.812-2.297
							c-0.592,0.406-1.183,0.812-1.78,1.224c-0.273,0.186-0.65,0.371-0.899,0.157c-0.226-0.18-0.168-0.534-0.075-0.806
							c0.302-0.858,0.812-1.647,1.479-2.262c-0.737,0.365-1.467,0.737-2.204,1.102c-0.342,0.174-0.806,0.319-1.05,0.029
							c-0.209-0.238-0.087-0.609,0.058-0.887c0.481-0.928,1.189-1.734,2.042-2.331c-0.551,0.075-1.102,0.145-1.653,0.214
							c-0.226,0.029-0.475,0.052-0.644-0.099c-0.186-0.162-0.174-0.476-0.035-0.684c0.139-0.203,0.36-0.336,0.58-0.452
							c3.747-2.07,7.766-3.648,11.913-4.692c0.678,2.836,2.732,4.872,3.822,5.782l-0.058,0.07
							C482.33,283.504,479.367,284.449,476.589,284.031z"/>
						<path style="fill:#FFA18D;" d="M473.358,233.33l-2.97,5.608c-0.516-0.383-1.027-0.771-1.543-1.154
							c-2.732,0.534-5.649,0.093-8.102-1.224c-1.299,0.574-2.708,0.893-4.129,0.928c-0.244,0.006-0.499,0.006-0.731-0.087
							s-0.435-0.29-0.464-0.539c-0.029-0.267,0.145-0.511,0.319-0.713c0.487-0.58,1.044-1.096,1.659-1.537
							c-0.725,0.029-1.45-0.035-2.163-0.18c-0.191-0.04-0.383-0.087-0.551-0.191c-0.162-0.104-0.296-0.278-0.307-0.475
							c-0.012-0.244,0.168-0.458,0.348-0.626c0.481-0.452,1.061-0.8,1.688-1.009c-0.383-0.128-0.806-0.064-1.218-0.11
							c-0.406-0.046-0.852-0.267-0.916-0.673c-0.046-0.273,0.104-0.539,0.261-0.771c0.853-1.241,2.082-2.215,3.486-2.767
							c-2.436-0.76-4.866-1.52-7.302-2.279c-0.296-0.099-0.667-0.302-0.591-0.609c0.052-0.244,0.354-0.319,0.603-0.348
							c2.047-0.221,4.106,0.093,6.142,0.412c2.018,0.319,4.054,0.649,5.979,1.334c3.091,1.102,5.835,3.138,7.789,5.777l0.11-0.081
							c0.864,0.435,1.723,0.87,2.587,1.305L473.358,233.33z"/>
						<path style="fill:#18252D;" d="M525.728,255.733c-4.673,5.118-9.886,9.74-15.538,13.752c-1.575,1.118-3.184,2.189-4.823,3.212
							c-0.316,0.197-0.025,0.699,0.293,0.501c5.883-3.675,11.376-7.971,16.355-12.802c1.417-1.375,2.791-2.794,4.123-4.253
							C526.389,255.868,525.98,255.457,525.728,255.733z"/>
						<path style="fill:#18252D;" d="M515.572,245.257c-3.149,4.038-6.299,8.076-9.448,12.113c-0.902,1.156-1.804,2.313-2.706,3.469
							c-0.227,0.291,0.181,0.704,0.41,0.41c3.149-4.038,6.298-8.076,9.448-12.113c0.902-1.156,1.804-2.313,2.706-3.469
							C516.209,245.376,515.802,244.963,515.572,245.257z"/>
						<path style="fill:#18252D;" d="M506.647,262.92c-0.807-0.374-1.614-0.748-2.421-1.122c-0.142-0.066-0.312-0.04-0.397,0.104
							c-0.073,0.125-0.039,0.331,0.104,0.397c0.807,0.374,1.614,0.748,2.422,1.122c0.142,0.066,0.312,0.04,0.397-0.104
							C506.825,263.191,506.79,262.986,506.647,262.92z"/>
						<path style="fill:#18252D;" d="M505.008,263.837c-0.417-0.51-0.835-1.02-1.252-1.529c-0.096-0.118-0.311-0.108-0.41,0
							c-0.115,0.125-0.103,0.284,0,0.41c0.417,0.51,0.835,1.02,1.252,1.529c0.097,0.118,0.311,0.108,0.41,0
							C505.123,264.122,505.111,263.963,505.008,263.837z"/>
						<path style="fill:#18252D;" d="M526.16,240.139c-2.219-0.491-4.599-0.002-6.426,1.358c-0.296,0.22-0.007,0.724,0.293,0.501
							c1.703-1.268,3.902-1.76,5.979-1.3C526.369,240.779,526.524,240.22,526.16,240.139z"/>
						<path style="fill:#18252D;" d="M524.137,235.605c-2.928,1.573-5.855,3.147-8.783,4.72c-0.185,0.099-0.193,0.404,0,0.501
							c0.403,0.202,0.807,0.404,1.21,0.605c-3.514,3.168-6.718,6.672-9.556,10.458c-0.839,1.119-1.644,2.263-2.418,3.428
							c-0.207,0.312,0.295,0.603,0.501,0.293c2.677-4.032,5.753-7.792,9.178-11.211c0.975-0.973,1.978-1.917,3.006-2.833
							c0.134-0.119,0.103-0.375-0.059-0.456c-0.362-0.181-0.725-0.363-1.087-0.544l8.3-4.461
							C524.758,235.929,524.466,235.428,524.137,235.605z"/>
						<path style="fill:#18252D;" d="M526.874,268.862c-1.144,1.239-2.287,2.477-3.431,3.716c-0.253,0.274,0.156,0.685,0.41,0.41
							c1.144-1.239,2.287-2.478,3.431-3.716C527.537,268.999,527.128,268.587,526.874,268.862z"/>
						<path style="fill:#18252D;" d="M526.861,271.774c-0.121-0.121-0.288-0.099-0.41,0c-0.665,0.535-1.329,1.07-1.994,1.605
							c-0.122,0.098-0.102,0.308,0,0.41c0.121,0.121,0.288,0.099,0.41,0c0.665-0.535,1.329-1.07,1.994-1.606
							C526.983,272.085,526.963,271.876,526.861,271.774z"/>
						<path style="fill:#18252D;" d="M492.262,245.665c-0.417-1.019-0.834-2.038-1.25-3.057c-0.059-0.145-0.193-0.248-0.357-0.203
							c-0.137,0.038-0.262,0.211-0.202,0.357c0.417,1.019,0.834,2.038,1.25,3.057c0.059,0.145,0.193,0.248,0.357,0.202
							C492.197,245.984,492.322,245.811,492.262,245.665z"/>
						<path style="fill:#18252D;" d="M490.195,243.483c-0.014-0.156-0.123-0.29-0.29-0.29c-0.146,0-0.305,0.133-0.29,0.29
							c0.072,0.788,0.145,1.576,0.217,2.365c0.014,0.156,0.123,0.29,0.29,0.29c0.146,0,0.304-0.133,0.29-0.29
							C490.34,245.059,490.268,244.271,490.195,243.483z"/>
						<path style="fill:#18252D;" d="M465.13,234.832c-1.774-1.042-3.03-2.901-3.307-4.944c0.062-0.174-0.023-0.4-0.259-0.387
							c-1.093,0.06-2.191,0.008-3.27-0.179c-0.205-0.036-1.275-0.185-0.839-0.561c0.165-0.143,0.434-0.192,0.635-0.251
							c0.24-0.069,0.482-0.134,0.725-0.193c2.033-0.498,4.137-0.632,6.219-0.426c0.371,0.037,0.369-0.543,0-0.58
							c-1.313-0.13-2.636-0.128-3.948,0.019c-0.613,0.069-1.223,0.164-1.827,0.291c-0.598,0.126-1.237,0.251-1.802,0.486
							c-0.381,0.159-0.755,0.462-0.69,0.92c0.061,0.435,0.48,0.653,0.866,0.754c1.165,0.305,2.439,0.357,3.646,0.307
							c0.354,2.171,1.651,4.123,3.557,5.243C465.16,235.522,465.452,235.021,465.13,234.832z"/>
						<path style="fill:#18252D;" d="M461.709,234.031c-0.392-0.234-0.904-0.272-1.349-0.275c-0.019,0-0.039,0.002-0.058,0.002
							c0.019-0.015,0.04-0.026,0.059-0.041c0.37-0.288,0.847-0.635,0.905-1.139c0.055-0.47-0.275-0.891-0.689-1.075
							c-0.309-0.137-0.632-0.151-0.957-0.154c0.32-0.197,0.64-0.394,0.96-0.591c0.317-0.195,0.026-0.697-0.293-0.501l-1.729,1.064
							c-0.201,0.124-0.184,0.476,0.069,0.53c0.467,0.1,0.937,0.02,1.404,0.092c0.318,0.049,0.824,0.306,0.614,0.706
							c-0.167,0.317-0.576,0.577-0.861,0.778c-0.356,0.252-0.736,0.465-1.131,0.647c-0.296,0.136-0.086,0.643,0.224,0.53
							c0.685-0.251,1.461-0.361,2.181-0.202c0.269,0.059,0.603,0.187,0.569,0.523c-0.038,0.368-0.412,0.604-0.688,0.791
							c-0.307,0.208-0.017,0.711,0.293,0.501c0.392-0.266,0.8-0.565,0.934-1.045C462.293,234.719,462.11,234.27,461.709,234.031z"/>
					</g>
					<path style="fill:#18252D;" d="M528.59,296.671c-0.073-0.366-0.632-0.211-0.559,0.154c1.211,6.04-2.731,11.425-6.703,15.5
						c-4.275,4.386-8.866,8.49-13.596,12.377c-2.694,2.214-5.453,4.349-8.27,6.404c-0.134,0.098-0.178,0.243-0.104,0.397
						c3.96,8.206,7.92,16.413,11.88,24.619c1.11,2.301,2.221,4.603,3.331,6.904c0.162,0.336,0.662,0.042,0.501-0.293
						c-3.96-8.207-7.92-16.413-11.88-24.619c-1.073-2.223-2.146-4.447-3.218-6.67c5.033-3.684,9.884-7.618,14.517-11.795
						c2.321-2.092,4.6-4.237,6.8-6.457c2.109-2.128,4.143-4.401,5.577-7.052C528.422,303.266,529.242,299.921,528.59,296.671z"/>
					<g>
						<path style="fill:#FFA18D;" d="M517.013,222.774c-0.423,3.433,0.597,7.023,2.784,9.703
							c-10.086,7.18-10.613,3.642-10.613,3.642l0.046-0.394l0.354-2.969l-0.006-0.041c-1.809,0.18-3.694-0.261-5.127-1.369
							c-1.467-1.131-2.384-2.848-2.97-4.605c-1.485-4.466-0.986-9.529,1.206-13.681c0.545-1.044,1.201-2.024,1.96-2.929
							c2.523,3.915,6.681,6.734,11.24,7.644c0.029-0.859,0.65-1.659,1.479-1.902c0.829-0.249,1.798,0.104,2.285,0.818
							c0.383,0.574,0.458,1.299,0.383,1.983C519.843,220.443,518.631,222.061,517.013,222.774z"/>
						<path style="fill:#18252D;" d="M504.648,210.131c-0.76,0.905-1.415,1.885-1.96,2.929c-0.864-0.65-1.74-1.334-2.279-2.262
							c-0.568-0.968-0.696-2.285-0.006-3.172c0.626-0.8,1.717-1.044,2.72-1.235c2.592-0.487,5.191-0.98,7.783-1.473
							c2.419-0.452,4.883-0.916,7.325-0.597c2.442,0.313,4.895,1.537,6.072,3.706c2.25,4.158-0.916,9.941,1.792,13.821
							c1.398,2.007,3.926,2.796,6.206,3.689c2.268,0.887,4.489,2.024,6.206,3.753c1.711,1.728,2.871,4.129,2.674,6.554
							c-0.203,2.43-1.978,4.767-4.373,5.202c2.216,2.697,2.558,6.786,0.823,9.813c-1.63,2.854-5.005,4.588-8.27,4.332
							c0.122-4.008,0.058-8.056-0.429-11.089c-1.409-8.787-9.135-11.623-9.135-11.623c-2.187-2.68-3.207-6.27-2.784-9.703
							c1.618-0.713,2.83-2.331,3.022-4.1c0.075-0.684,0-1.409-0.383-1.983c-0.487-0.713-1.456-1.067-2.285-0.818
							c-0.829,0.244-1.45,1.044-1.479,1.902C511.329,216.865,507.171,214.046,504.648,210.131z"/>
						<path style="fill:#18252D;" d="M514.358,229.529c-1.342,1.371-3.011,2.383-4.849,2.934c-0.357,0.107-0.205,0.667,0.154,0.559
							c1.931-0.579,3.695-1.642,5.105-3.083C515.029,229.672,514.62,229.262,514.358,229.529z"/>
					</g>
				</g>
			</g>
			<g>
				<g>
					<path style="fill:#FFA18D;" d="M344.175,272.506c0.351,1.34-0.956,7.714-1.145,8.625c-3.363-1.815-7.233-1.268-8.853-0.911
						c-0.364-1.34-1.867-7.025-1.886-8.937c-0.026-2.166,0.742-11.812,2.732-12.495c1.99-0.689,0.215,6.368,0.54,10.349
						c0,0,1.359-3.246,2.556-3.122c1.197,0.13,1.717,2.199,1.717,2.199s1.405-0.852,2.218-0.163
						c0.813,0.689,0.384,2.985,0.384,2.985S343.804,271.055,344.175,272.506z"/>
					<path style="fill:#4376CF;" d="M264.606,342.539l-0.319-0.046c0,0-7.773-12.898-8.196-20.372
						c-0.423-7.474,0.202-35.137,4.098-39.053c1.398-1.411,6.361-5.242,15.175-6.862c2.485-0.455,5.275-0.735,8.384-0.735
						c4.592,0,9.074,0.202,13.172,0.592c8.488,0.806,15.325,2.4,18.05,4.592c4.039,3.252,16.391,21.094,16.391,21.094l1.691-20.008
						c0,0,0.124-0.026,0.345-0.059c1.496-0.234,7.526-1.021,11.682,0.95c0.13,0.065,0.26,0.13,0.384,0.195
						c0,0,0.663,34.656-7.233,35.079c-7.89,0.423-25.309-7.955-25.309-7.955l3.857,45.681c0,0-1.249,0.631-3.324,1.594
						c-6.322,2.921-20.313,8.866-30.07,9.139c-9.633,0.267-16.437-4.729-19.286-7.311c-0.982-0.885-1.496-1.49-1.496-1.49
						L264.606,342.539z"/>
					<path style="fill:#FFFFFF;" d="M343.03,281.131c0.715,0.384,1.405,0.878,2.049,1.503c-4.156-1.971-10.186-1.184-11.682-0.95
						v-1.268c0,0,0.286-0.091,0.781-0.195C335.797,279.862,339.667,279.316,343.03,281.131z"/>
					<path style="fill:#FFFFFF;" d="M278.623,271.868c3.129-0.13,9.334-0.111,14.16,1.743c0.124,0.059,0.26,0.111,0.39,0.15
						c1.424,0.585,2.712,1.333,3.746,2.303c-4.098-0.39-8.579-0.592-13.172-0.592c-3.109,0-5.9,0.28-8.384,0.735l1.268-4.202
						C276.633,272.005,277.387,271.927,278.623,271.868z"/>
					<path style="fill:#18252D;" d="M265.507,333.397c-0.928-10.449-1.857-20.899-2.785-31.348
						c-0.263-2.958-0.526-5.916-0.788-8.874c-0.037-0.414-0.688-0.418-0.65,0c0.936,10.541,1.873,21.082,2.809,31.623
						c0.263,2.958,0.526,5.916,0.788,8.874c0.003,0.034,0.016,0.06,0.026,0.089c-0.301,3.154-0.603,6.307-0.904,9.461
						c-0.04,0.417,0.611,0.414,0.65,0l0.918-9.612C265.581,333.517,265.552,333.448,265.507,333.397z"/>
					<path style="fill:#18252D;" d="M277.964,331.185c-3.231,0.516-6.423,1.246-9.557,2.187c-0.4,0.12-0.23,0.748,0.173,0.627
						c3.134-0.94,6.326-1.671,9.557-2.187C278.549,331.746,278.374,331.119,277.964,331.185z"/>
					<path style="fill:#18252D;" d="M276.39,333.311c-1.929,0.203-3.857,0.405-5.786,0.608c-0.412,0.043-0.416,0.694,0,0.65
						c1.929-0.202,3.857-0.405,5.786-0.608C276.802,333.918,276.806,333.267,276.39,333.311z"/>
					<path style="fill:#18252D;" d="M312.164,309.331c-3.238-2.772-6.477-5.543-9.715-8.315c-0.316-0.271-0.778,0.187-0.46,0.46
						c3.238,2.772,6.477,5.543,9.715,8.315C312.02,310.062,312.482,309.604,312.164,309.331z"/>
					<path style="fill:#18252D;" d="M309.932,310.116c-1.711-0.716-3.421-1.433-5.132-2.149c-0.163-0.068-0.356,0.074-0.4,0.227
						c-0.054,0.187,0.066,0.333,0.227,0.4c1.711,0.716,3.421,1.433,5.132,2.149c0.163,0.068,0.356-0.074,0.4-0.227
						C310.212,310.329,310.093,310.183,309.932,310.116z"/>
					<path style="fill:#18252D;" d="M335.027,305.41c-1.052-1.178-2.104-2.356-3.155-3.534c-0.279-0.313-0.738,0.148-0.46,0.46
						c1.052,1.178,2.104,2.356,3.155,3.534C334.846,306.183,335.305,305.721,335.027,305.41z"/>
					<path style="fill:#18252D;" d="M335.553,302.956c-0.905-0.51-1.81-1.021-2.716-1.531c-0.365-0.206-0.693,0.356-0.328,0.562
						c0.905,0.51,1.81,1.021,2.716,1.531C335.59,303.723,335.918,303.162,335.553,302.956z"/>
				</g>
				<g>
					<path style="fill:#18252D;" d="M316.44,459.873c10.57-2.712,16.19,0.319,15.377,2.81c-0.813,2.485-18.082,9.854-18.082,9.854
						h-14.967v-8.358c1.451,1.431,4.163,3.07,8.729,2.478c7.682-0.995,9.041-3.434,9.041-3.434L316.44,459.873z"/>
					<path style="fill:#18252D;" d="M316.44,459.873l0.098,3.35c0,0-1.359,2.439-9.041,3.434c-4.566,0.592-7.278-1.047-8.729-2.478
						c-0.995-0.982-1.398-1.86-1.398-1.86L296.1,407.89L285.7,375.615l-1.893-5.874l-19.708-4.521h-0.091l0.091-6.166
						c2.849,2.582,9.653,7.578,19.286,7.311c9.757-0.273,23.748-6.218,30.07-9.139L316.44,459.873z"/>
					<path style="fill:#18252D;" d="M278.844,459.574l-0.462,5.639c-7.864,3.708-13.302,2.081-15.734,0.878
						c-0.95-0.468-1.444-0.878-1.444-0.878l2.172-57.142l0.631-42.851h0.091l19.708,4.521l1.893,5.874L278.844,459.574z"/>
					<path style="fill:#18252D;" d="M278.844,459.574c2.764,0.098,6.641,0.729,6.049,3.467c-0.904,4.208-6.693,8.859-6.693,8.859
						h-15.552v-5.809c2.433,1.203,7.87,2.829,15.734-0.878L278.844,459.574z"/>
					<path style="fill:#18252D;" d="M311.64,423.251l-1.987-39.767c-0.374-7.478-0.747-14.955-1.121-22.432
						c-0.021-0.417-0.671-0.419-0.65,0c0.666,13.323,1.332,26.647,1.998,39.971l1.987,39.767c0.374,7.477,0.747,14.955,1.121,22.432
						c0.021,0.417,0.671,0.419,0.65,0C312.972,449.898,312.306,436.575,311.64,423.251z"/>
				</g>
				<g>
					<path style="fill:#FFA18D;" d="M299.567,257.298c0.182,1.86,0.286,3.734,0.332,5.6c0.026,1.281,0.033,2.563,0.013,3.831
						c-0.02,1.47-0.104,3.005-0.839,4.28c-1.08,1.886-3.844,3.421-5.899,2.751c-0.13-0.052-0.26-0.104-0.39-0.15
						c-4.826-1.854-11.032-1.873-14.16-1.743c0.019-1.093-0.085-2.185-0.306-3.259c4.254-1.626,9.152-1.509,13.308,0.351
						c0.891-2.244,1.782-4.482,2.673-6.719c-0.793-1.216-1.145-2.738-0.885-4.176c0.098-0.54,0.273-1.073,0.624-1.49
						c0.351-0.416,0.898-0.703,1.438-0.631c0.358,0.046,0.689,0.267,0.872,0.572c0.358-2.186,0.715-4.371,1.073-6.557
						c0.286-0.163,0.559-0.338,0.82-0.527C298.884,251.997,299.307,254.638,299.567,257.298z"/>
					<path style="fill:#F99180;" d="M301.915,262.242l-2.016,0.657c-0.046-1.867-0.15-3.74-0.332-5.6
						C300.354,258.964,301.206,260.765,301.915,262.242z"/>
					<path style="fill:#18252D;" d="M276.333,247.75c0.442-2.602,1.984-5.002,4.169-6.485c2.277-1.555,5.23-2.081,7.909-1.418
						c1.808,0.442,3.447,1.392,5.158,2.146c1.704,0.748,3.59,1.32,5.418,0.943c0.703-0.143,1.503-0.403,2.082,0.02
						c0.644,0.462,0.566,1.444,0.312,2.198c-0.566,1.704-1.691,3.22-3.142,4.28c-0.26,0.189-0.533,0.364-0.82,0.527
						c-0.358,2.185-0.715,4.371-1.073,6.557c-0.182-0.306-0.514-0.527-0.872-0.572c-0.54-0.072-1.086,0.215-1.438,0.631
						c-0.351,0.416-0.527,0.95-0.624,1.49c-0.26,1.438,0.091,2.96,0.885,4.176c-0.891,2.237-1.782,4.475-2.673,6.719
						c-4.156-1.86-9.054-1.977-13.308-0.351c-0.293-1.49-0.807-2.934-1.516-4.273c-0.826-1.561-1.919-2.973-2.921-4.436
						c-1.002-1.457-1.938-2.999-2.407-4.709c-0.468-1.704-0.429-3.617,0.449-5.158C272.795,248.498,274.596,247.444,276.333,247.75z
						"/>
					<path style="fill:#18252D;" d="M295.206,255.406c-1.104,0.028-1.805,0.96-2.11,1.932c-0.663,2.109,0.024,4.528,1.558,6.082
						c0.295,0.298,0.754-0.162,0.46-0.46c-1.201-1.217-1.802-2.981-1.563-4.68c0.107-0.76,0.385-1.708,1.123-2.086
						c0.882-0.451,1.851,0.247,1.842,1.193c-0.004,0.419,0.647,0.419,0.65,0C297.176,256.302,296.312,255.378,295.206,255.406z"/>
				</g>
			</g>
			<g>
				<path style="fill:#FFA18D;" d="M660.112,445.199c2.351,5.681,6.551,16.258,6.236,18.553c-0.315,2.295-1.724,10.484-2.519,10.896
					c-0.794,0.413,7.645-0.66,7.853-12.012c0.221-12.212-5.047-20.932-5.047-20.932L660.112,445.199z"/>
				<path style="fill:#4376CF;" d="M671.579,459.244c-0.786,2.374-1.629,9.886-3.398,12.522c-1.039,1.548-3.815,2.828-3.635,1.201
					c-2.886,4.029-2.571,3.693,0.193,3.144c2.764-0.551,6.355-1.852,6.869-10.462c0.893,3.431,0.573,6.865,1.171,6.631
					c0.6-0.232,1.131-0.356,1.131-0.356C672.116,464.224,675.247,461.375,671.579,459.244z"/>
				<path style="fill:#FFA18D;" d="M678.23,447.25c-1.272,4.18-2.044,15.356-0.318,17.719c1.726,2.362,0.227,2.181-2.862,6.361
					c-3.089,4.18-0.88,6.904-6.633,7.178c-2.544,0.121-2.711,0.936-0.727-3.089c6.3-12.781,2.544-18.991,1.363-27.169
					C668.262,442.779,678.23,447.25,678.23,447.25z"/>
				<g>
					<path style="fill:#18252D;" d="M669.281,447.91c0.706,3.198,0.932,6.459,1.508,9.678c0.479,2.677,1.172,5.739,0.4,8.416
						c-0.129,0.449-0.831,0.258-0.701-0.193c0.79-2.742-0.028-5.948-0.516-8.674c-0.538-3.004-0.734-6.047-1.392-9.033
						C668.48,447.647,669.18,447.452,669.281,447.91L669.281,447.91z"/>
				</g>
				<path style="fill:#18252D;" d="M646.668,411.388c2.544,6.663,6.664,21.929,11.631,34.408c1.332,0.485,4.12,0.484,7.512-1.333
					c0,0-0.121,1.817,0.605,4.846c1.333,0.363,7.391,1.454,13.206-0.848c0,0,1.817-6.179,2.786-20.595
					c0.969-14.416-1.575-11.147,2.544-31.622c4.12-20.475,1.817-28.835,0.606-35.377c0,0-2.029-2.484-5.785-6.845
					c-12.903,10.177-25.716,2.727-25.716,2.727s-0.484-0.606-1.09,2.059c-0.243,7.633-4.604,24.837-6.421,33.56
					C644.73,401.091,644.124,404.725,646.668,411.388z M660.147,402.544c-0.091-3.635,5.361-11.903,6.997-19.173
					c0.545,6.27-0.364,21.899,0,30.077c0.363,8.178-0.364,17.9-0.364,17.9C665.145,424.443,660.238,406.178,660.147,402.544z"/>
				<path style="fill:#18252D;" d="M678.502,298.049c3.816,2.726,6.906,6.179,5.452,16.538c-8.269,1.272-10.177-0.182-10.177-0.182
					l1.999-16.265L678.502,298.049z"/>
				<path style="fill:#FFA18D;" d="M674.534,275.938c-4.483-4.482-21.324-2.787-21.929,6.179c0,8.239,1.09,7.512,1.575,12.6
					c0.485,5.089,4.846,9.935,11.025,9.087c0,4.119-2.06,8.844-2.06,8.844l-4.604,0.363c0,0-4.967,16.477,5.088,17.083
					c10.056,0.606,11.691-5.451,12.903-16.597c-0.303-4.301-0.727-14.599-0.727-14.599c8.542-1.242,8.148-12.388,1.151-6.724
					C675.746,279.694,674.534,275.938,674.534,275.938z"/>
				<path style="fill:#FFFFFF;" d="M672.323,326.58c-2.726,3.089-12.328,3.453-14.085-2.725c-0.636,15.084-2.362,32.802-3.179,33.71
					c6.542,2.272,15.629,2.999,19.899-0.363C674.595,348.388,672.142,330.942,672.323,326.58z"/>
				<path style="fill:#4376CF;" d="M662.359,312.709c-1.272,2.726-3.665,18.596-3.665,26.501s-1,19.809-5.27,27.078
					c-4.18-0.818-8.814-1.636-8.814-1.999c-0.091-2.453,4.18-15.175,4.18-15.175c-3.18-0.182-5.089-4.725-4.634-12.358
					c0.454-7.633,3.907-21.081,4.089-21.626c0.182-0.545,0.818-2.726,6.906-2.181C655.332,311.497,662.419,311.558,662.359,312.709z
					"/>
				<path style="fill:#FFA18D;" d="M671.869,332.274c-2.12,0.061-7.269,0.909-7.269,0.909l-0.591,6.573l8.89-1.968L671.869,332.274z
					"/>
				<g>
					<path style="fill:#18252D;" d="M671.521,301.093c-1.789,1.485-3.947,2.552-6.219,3.061c-0.456,0.103-0.651-0.598-0.193-0.701
						c2.147-0.482,4.204-1.469,5.898-2.875C671.364,300.281,671.881,300.793,671.521,301.093L671.521,301.093z"/>
				</g>
				<path style="fill:#18252D;" d="M680.572,290.516c5.179-5.634,1.565-15.184-4.341-18.637c-5.906-3.453-15.901-2.09-19.536,2.635
					c-4.998,3.725-6.133,5.634-6.133,11.631c0,5.33,2.123,12.807,1.86,17.208c-0.033,0.551-0.001,1.288,0.618,0.662
					c3.08-3.115,0.702-12.187,0.702-12.187c-0.818-3.544-1.136-8.379-0.772-9.529c0.364-1.151,5.816-7.33,10.632-5.967
					c1.727,6.997,8.087,16.855,14.084,19.445c0.909,0.091,0.045-2.272-0.772-3.453C678.639,290.598,680.572,290.516,680.572,290.516
					z"/>
				<path style="fill:#4376CF;" d="M664.842,332.82c-4.089,0.545-5.898,1.393-9.079,2.484c-1.999,7.269-0.613,10.54-0.613,10.54
					s6.36-2.605,10.237-4.058C664.146,336.621,664.842,332.82,664.842,332.82z"/>
				<path style="fill:#4376CF;" d="M676.685,313.132c-1,3.362-11.358,31.803,0,51.884c1.817,1.181,12.903-4.18,12.903-4.18
					c-1.363-6.906-6.906-13.085-6.906-13.085s7.542-16.719,7.724-24.715c0.182-7.996-3.635-8.905-9.541-8.905
					C681.259,313.072,677.352,312.83,676.685,313.132z"/>
				<path style="fill:#FFA18D;" d="M679.956,304.773c-1.817-4.452-5.634-6.33-6.724-6.239c-1.09,0.091,2.999,5.603,2.999,5.603
					c-5.634,0.545-6.361,2.181-6.542,2.999c-0.182,0.818,0.091,3.544,0.091,3.544c-1.636,2.272-1.272,3.907-0.454,5.179
					s1.681,10.782,1.514,15.871c-0.151,4.604,0.819,7.088,1.121,9.026c5.134,1,8.541-2.362,8.541-2.362s-4.271-13.902-6.27-19.809
					c-1.363-4.362,1.636-8.178,2.817-9.813C678.23,307.135,680.592,305.591,679.956,304.773z"/>
				<path style="fill:#FFA18D;" d="M678.866,332.305c0,0,5.179,0.818,6.452,2.908c1.272,2.09,1.03,5.846,0.121,7.845
					c-1.817,1.999-2.847,1.272-3.816-1.878c-0.383-1.244-1.575-3.786-1.575-3.786L678.866,332.305z"/>
				<g>
					<path style="fill:#18252D;" d="M675.623,299.877c-0.266-0.202-2.398-1.11-2.272-0.864c0.315,0.614,0.966,1.157,1.444,1.642
						c1.007,1.02,1.532,1.835,1.826,3.267c0.038,0.184-0.05,0.405-0.254,0.447c-1.695,0.35-3.13,1.053-4.678,1.807
						c-1.484,0.722-1.19,2.256-1.56,3.599c-0.124,0.451-0.825,0.259-0.701-0.193c0.336-1.226,0.156-2.435,1.017-3.445
						c0.609-0.715,1.83-1.062,2.64-1.468c0.998-0.5,2-0.777,3.088-1.001c-0.085,0.149-0.169,0.298-0.254,0.447
						c-0.349-1.696-1.226-2.495-2.351-3.681c-0.394-0.416-1.068-1.064-1.068-1.697c0-1.652,3.141,0.249,3.489,0.512
						C676.358,299.529,675.996,300.161,675.623,299.877L675.623,299.877z"/>
				</g>
				<g>
					<path style="fill:#18252D;" d="M673.091,308.227c-0.894,1.47-2.05,2.724-3.089,4.089c-1.448,1.902-0.924,3.264-0.28,5.354
						c0.97,3.154,1.277,6.505,1.44,9.785c0.233,4.659,0.631,9.312,0.949,13.966c0.032,0.468-0.695,0.465-0.727,0
						c-0.327-4.794-0.753-9.587-0.969-14.387c-0.099-2.204-0.348-4.398-0.758-6.566c-0.344-1.823-1.153-3.55-1.433-5.37
						c-0.411-2.667,3.027-5.244,4.24-7.239C672.707,307.461,673.336,307.826,673.091,308.227L673.091,308.227z"/>
				</g>
				<g>
					<path style="fill:#18252D;" d="M681.228,314.041c-0.288,2.487,0.067,8.164-3.265,8.801c0.054-0.202,0.107-0.405,0.16-0.607
						c1.156,1.037,0.858,2.162,0.457,3.534c-0.131,0.449-0.832,0.258-0.701-0.193c0.269-0.921,0.711-1.947-0.27-2.827
						c-0.195-0.175-0.104-0.557,0.16-0.607c2.812-0.538,2.483-5.957,2.732-8.1C680.555,313.581,681.282,313.576,681.228,314.041
						L681.228,314.041z"/>
				</g>
				<g>
					<path style="fill:#18252D;" d="M655.682,313.501c-0.354,2.013-0.739,4.015-0.848,6.06c-0.047,0.894-0.183,2.394,0.466,3.096
						c0.45,0.487,0.597,0.476,0.813,1.11c0.076,0.221-0.051,0.549-0.15,0.736c-0.508,0.961-0.942,1.94-1.292,2.97
						c-0.646,1.904-0.539,3.901-0.989,5.837c-0.073,0.314-0.508,0.348-0.664,0.087c-0.098-0.164-0.086-0.282-0.037-0.462
						c0.123-0.452,0.824-0.26,0.701,0.193c-0.012-0.033-0.024-0.065-0.037-0.098c-0.221,0.029-0.443,0.058-0.664,0.087
						c0.407-1.75,0.354-3.539,0.821-5.284c0.405-1.513,1.993-3.569,0.778-4.883c-0.781-0.844-0.494-3.012-0.442-4.013
						c0.1-1.891,0.514-3.769,0.841-5.629C655.062,312.847,655.763,313.043,655.682,313.501L655.682,313.501z"/>
				</g>
				<g>
					<path style="fill:#18252D;" d="M660.426,334.018c-2.17,0.582-4.238,1.452-6.361,2.181c-0.928,0.319-1.88,0.561-2.81,0.877
						c-1.04,0.353-1.905,1.062-2.914,1.486c-0.432,0.181-0.619-0.522-0.193-0.701c0.829-0.348,1.527-0.949,2.363-1.272
						c0.922-0.356,1.863-0.632,2.81-0.915c2.336-0.697,4.553-1.724,6.913-2.356C660.686,333.196,660.878,333.897,660.426,334.018
						L660.426,334.018z"/>
				</g>
				<g>
					<path style="fill:#18252D;" d="M652.782,336.018c-1.126-0.385-2.358-0.276-3.531-0.243c-0.363,0.01-1.342,0.158-1.448-0.375
						c-0.091-0.458,0.609-0.653,0.701-0.193c-0.056-0.285,0.507-0.154,0.747-0.159c0.304-0.006,0.606-0.017,0.91-0.019
						c0.958-0.008,1.898-0.026,2.815,0.288C653.416,335.467,653.226,336.169,652.782,336.018L652.782,336.018z"/>
				</g>
				<g>
					<path style="fill:#18252D;" d="M683.268,347.39c-0.817,1.125-1.592,2.822-3.036,3.285c-1.415,0.453-3.002,0.415-4.343-0.283
						c-3.199-1.663-4.389-5.372-4.429-8.82c-0.005-0.469,0.722-0.469,0.727,0c0.027,2.348,0.719,5.269,2.347,7.01
						c1.072,1.146,2.654,1.67,4.182,1.668c2.044-0.004,2.884-1.795,3.925-3.228C682.914,346.648,683.545,347.01,683.268,347.39
						L683.268,347.39z"/>
				</g>
				<g>
					<path style="fill:#18252D;" d="M682.121,335.864c2.114,2.321,1.764,5.429,1.742,8.344c-0.003,0.468-0.73,0.469-0.727,0
						c0.021-2.681,0.427-5.682-1.529-7.83C681.292,336.033,681.805,335.517,682.121,335.864L682.121,335.864z"/>
				</g>
				<g>
					<path style="fill:#18252D;" d="M683.212,335.137c2.405,2.028,2.299,4.897,2.287,7.799c-0.002,0.469-0.729,0.469-0.727,0
						c0.011-2.698,0.181-5.382-2.074-7.285C682.339,335.349,682.856,334.837,683.212,335.137L683.212,335.137z"/>
				</g>
				<g>
					<path style="fill:#18252D;" d="M675.125,307.061c0.187-0.206-0.724-0.671-0.864-0.745c-0.571-0.302-1.433-0.358-2.054-0.223
						c-0.457,0.1-0.651-0.601-0.193-0.701c0.976-0.213,2.065-0.03,2.926,0.469c0.619,0.359,1.323,1.026,0.699,1.714
						C675.323,307.922,674.811,307.407,675.125,307.061L675.125,307.061z"/>
				</g>
				<g>
					<path style="fill:#18252D;" d="M677.003,305.999c-0.739-0.71-1.543-0.799-2.529-0.802c-0.469-0.001-0.469-0.728,0-0.727
						c1.186,0.004,2.161,0.168,3.043,1.015C677.856,305.81,677.341,306.324,677.003,305.999L677.003,305.999z"/>
				</g>
				<g>
					<path style="fill:#18252D;" d="M670.596,310.891c-0.734,0.052-1.347-0.482-1.393-1.211c-0.029-0.469,0.698-0.466,0.727,0
						c0.022,0.352,0.35,0.507,0.666,0.484C671.065,310.131,671.061,310.858,670.596,310.891L670.596,310.891z"/>
				</g>
				<g>
					<path style="fill:#18252D;" d="M677.032,309.634c-2.093,2.163-3.137,5.07-2.633,8.066c0.438,2.599,1.597,5.162,2.273,7.718
						c0.566,2.138,1.598,4.111,2.281,6.214c0.598,1.84,1.102,3.711,1.625,5.574c0.127,0.452-0.575,0.644-0.701,0.193
						c-1.349-4.812-3.239-9.41-4.521-14.226c-0.73-2.744-2.03-5.13-1.768-8.05c0.204-2.277,1.363-4.386,2.929-6.004
						C676.845,308.783,677.358,309.297,677.032,309.634L677.032,309.634z"/>
				</g>
				<g>
					<path style="fill:#18252D;" d="M659.496,344.465c-3.355,2.681-7.586,5.264-11.979,5.377c-0.469,0.012-0.468-0.715,0-0.727
						c4.146-0.106,8.285-2.622,11.465-5.164C659.344,343.662,659.862,344.173,659.496,344.465L659.496,344.465z"/>
				</g>
				<path style="fill:#4376CF;" d="M677.775,464.242c-1.304,2.134-4.191,9.495-6.512,11.661c-1.363,1.272-4.301,1.332-3.756-0.212
					c-3.725,3.271-3.816,3.635-1,3.725c2.817,0.091,7.133,0.318,9.586-7.951c0.273,2.726-0.591,6.224,0.045,6.133
					c0.636-0.091,1.181-0.091,1.181-0.091C677.321,469.603,680.865,467.149,677.775,464.242z"/>
				<g>
					<path style="fill:#18252D;" d="M666.596,375.598c-1.261-0.84-2.743-1.212-4.119-1.817c-0.428-0.188-0.058-0.814,0.367-0.628
						c1.378,0.606,2.854,0.975,4.119,1.817C667.351,375.229,666.988,375.858,666.596,375.598L666.596,375.598z"/>
				</g>
				<g>
					<path style="fill:#18252D;" d="M672.837,378.677c0.105,2.75-0.371,5.518-0.458,8.269c-0.09,2.886-0.294,5.765-0.447,8.648
						c-0.321,6.026-0.459,12.008-0.319,18.041c0.134,5.815,0.036,11.81-0.656,17.591c-0.333,2.78-0.431,5.503-0.511,8.301
						c-0.037,1.288-0.028,2.565,0.047,3.851c0.083,1.432-0.229,2.694-0.321,4.113c-0.03,0.465-0.758,0.469-0.727,0
						c0.077-1.178,0.376-2.315,0.351-3.502c-0.031-1.493-0.113-2.967-0.077-4.462c0.067-2.794,0.146-5.53,0.511-8.301
						c0.374-2.84,0.263-5.721,0.548-8.57c0.298-2.981,0.173-6.031,0.108-9.021c-0.131-6.033-0.003-12.015,0.319-18.041
						c0.154-2.883,0.358-5.761,0.448-8.648c0.086-2.751,0.563-5.519,0.458-8.269C672.092,378.207,672.82,378.21,672.837,378.677
						L672.837,378.677z"/>
				</g>
				<g>
					<path style="fill:#18252D;" d="M666.659,432.953c0.093,1.768-0.178,3.505-0.27,5.267c-0.083,1.57,0.066,3.107-0.348,4.643
						c-0.122,0.452-0.823,0.26-0.701-0.193c0.439-1.631,0.263-3.323,0.35-4.992c0.083-1.585,0.326-3.132,0.242-4.725
						C665.907,432.485,666.634,432.487,666.659,432.953L666.659,432.953z"/>
				</g>
				<g>
					<path style="fill:#18252D;" d="M651.743,386.163c-0.726,4.295-2.17,8.436-2.73,12.761c-0.591,4.567,0.365,9.333,1.444,13.758
						c1.055,4.327,2.304,8.678,3.573,12.948c0.631,2.125,1.349,4.194,1.872,6.352c0.565,2.333,1.127,4.644,2.105,6.846
						c0.189,0.424-0.438,0.794-0.628,0.366c-1.8-4.048-2.479-8.533-3.852-12.735c-1.517-4.643-2.776-9.507-3.934-14.252
						c-1.048-4.297-1.778-8.863-1.307-13.283c0.469-4.396,2.021-8.604,2.756-12.954C651.12,385.509,651.821,385.705,651.743,386.163
						L651.743,386.163z"/>
				</g>
				<g>
					<path style="fill:#18252D;" d="M666.525,375.672c0.229,1.132,0.127,2.26,0.142,3.408c0.022,1.725,0.212,3.444,0.235,5.169
						c0.006,0.469-0.721,0.469-0.727,0c-0.017-1.295-0.103-2.585-0.18-3.877c-0.088-1.484,0.125-3.047-0.17-4.507
						C665.731,375.408,666.432,375.213,666.525,375.672L666.525,375.672z"/>
				</g>
				<g>
					<path style="fill:#18252D;" d="M671.965,362.187c-2.211,0.348-4.37,0.894-6.62,0.904c-2.169,0.01-4.303-0.732-6.295-1.51
						c-0.432-0.169-0.244-0.872,0.193-0.701c1.988,0.777,3.954,1.376,6.102,1.484c2.153,0.109,4.315-0.546,6.427-0.879
						C672.23,361.414,672.427,362.114,671.965,362.187L671.965,362.187z"/>
				</g>
				<g>
					<path style="fill:#18252D;" d="M669.764,281.679c2.383,2.999,4.1,6.451,6.482,9.45c0.288,0.363-0.222,0.881-0.514,0.514
						c-2.383-3-4.1-6.451-6.482-9.45C668.961,281.83,669.472,281.312,669.764,281.679L669.764,281.679z"/>
				</g>
				<g>
					<path style="fill:#18252D;" d="M664.079,275.077c-2.289-0.904-4.596-0.753-6.894,0c-0.447,0.147-0.636-0.556-0.193-0.701
						c2.432-0.798,4.848-0.961,7.281,0C664.703,274.546,664.516,275.25,664.079,275.077L664.079,275.077z"/>
				</g>
				<g>
					<path style="fill:#18252D;" d="M667.084,272.243c4.563,0.181,9.526,1.887,12.005,5.995c0.243,0.402-0.386,0.768-0.628,0.367
						c-2.344-3.883-7.078-5.465-11.377-5.635C666.617,272.952,666.615,272.225,667.084,272.243L667.084,272.243z"/>
				</g>
				<g>
					<path style="fill:#18252D;" d="M667.907,273.347c2.906,0.618,5.016,2.473,7.066,4.515c0.333,0.331-0.182,0.845-0.514,0.514
						c-1.96-1.953-3.961-3.737-6.745-4.329C667.255,273.951,667.45,273.25,667.907,273.347L667.907,273.347z"/>
				</g>
				<g>
					<path style="fill:#18252D;" d="M680.845,338.576c-1.354,2.057-3.793,2.793-6.129,2.725c-0.468-0.013-0.469-0.74,0-0.727
						c2.059,0.06,4.293-0.53,5.502-2.364C680.474,337.82,681.104,338.184,680.845,338.576L680.845,338.576z"/>
				</g>
				<g>
					<path style="fill:#18252D;" d="M665.024,332.699c-0.011,3.094-0.119,6.172,0.774,9.172c0.134,0.45-0.567,0.641-0.701,0.193
						c-0.911-3.06-0.811-6.204-0.8-9.365C664.298,332.23,665.025,332.23,665.024,332.699L665.024,332.699z"/>
				</g>
				<g>
					<path style="fill:#18252D;" d="M677.139,462.788c-0.012,1.133-0.23,2.196-0.558,3.277c-0.135,0.447-0.837,0.256-0.701-0.193
						c0.309-1.019,0.521-2.015,0.532-3.084C676.417,462.319,677.144,462.319,677.139,462.788L677.139,462.788z"/>
				</g>
			</g>
			<g>
				<path style="fill:#FFA18D;" d="M371.464,124.282c0.86,2.237,1.893,6.108,1.893,6.108l6.625-1.291l-1.032-5.936L371.464,124.282z
					"/>
				<path style="fill:#FFA18D;" d="M390.219,124.799c-0.086,0.258-0.516,9.98-0.516,9.98l6.28-2.495l2.495-7.485H390.219z"/>
				<path style="fill:#18252D;" d="M367.249,126.892c3.441-0.114,12.618-2.523,12.618-2.523c-1.262-5.277-9.636-32.465-9.98-33.611
					c4.933-1.147,15.601-0.458,15.601-0.458c-1.492,5.391-0.46,33.381-1.262,36.593c4.933,0.115,14.569-0.344,14.569-0.344
					c2.065-6.309,4.703-29.481,7.915-33.267c3.212-3.786,11.93-3.212,11.93-3.212c1.262-9.177,1.033-19.157,1.033-19.157
					s-23.975-1.376-31.202-1.606c-7.227-0.23-27.76,2.753-34.414,7.685c-6.654,4.933-2.752,14.913,2.524,25.581
					C361.857,113.242,367.249,126.892,367.249,126.892z"/>
				<path style="fill:#FFA18D;" d="M367.764,82.555c1.979,2.495,4.732,7.141,5.592,9.722c0.86,2.581,3.097,9.894,4.044,9.292
					c0.43,3.958,1.29,3.269,1.549,3.097c1.032,0.774,1.98,0.458,1.893-2.094c0.257-1.606,1.147-3.441,0.917-6.309
					c-0.23-2.868-5.22-15.773-8.661-20.247C371.033,77.049,367.764,82.555,367.764,82.555z"/>
				<path style="fill:#FFA18D;" d="M418.869,82.785c0,3.269-0.344,7.513-0.344,8.144c0,0.631,6.997,1.377,9.865,1.951
					c2.868,0.573,4.589-0.689,0.115-1.779c7.112-0.401,8.604-0.344,8.604-0.688s-2.524-1.434-6.654-1.434s-3.441-1.319-3.441-6.367
					C427.014,77.565,418.869,82.785,418.869,82.785z"/>
				<path style="fill:#4376CF;" d="M366.675,82.039c0,0,7.227-4.932,8.03-5.047c-1.606-4.245-5.277-8.833-5.162-10.095
					c0.115-1.262,8.374-13.421,9.98-14.798c3.212,8.718,6.309,16.175,10.324,17.207c6.998,0.229,24.089,4.015,28.448,1.492
					c0,6.883,0.115,13.307,0.115,13.307l9.751-1.147c0,0,0.802-23.974,0.229-33.84c-0.573-9.866-3.097-30.17-29.481-25.581
					c-14.339,3.097-27.99,6.998-35.331,22.484c-7.342,15.486-9.751,21.337-6.768,24.319S366.675,82.039,366.675,82.039z"/>
				<g>
					<path style="fill:#18252D;" d="M389.703,43.066c-0.013,0.93-0.335,2.616,0.76,3.066c0.517,0.212,1.077-0.431,1.389-0.738
						c0.659-0.648,1.225-1.359,1.793-2.085c0.27-0.345-0.213-0.836-0.487-0.487c-0.695,0.888-1.429,1.931-2.368,2.59
						c-0.496,0.348-0.404-2.054-0.4-2.347C390.397,42.622,389.709,42.622,389.703,43.066L389.703,43.066z"/>
				</g>
				<g>
					<path style="fill:#18252D;" d="M396.757,41.9c0.959,0.612,1.684,1.485,2.667,2.065c0.135,0.08,0.306,0.054,0.417-0.054
						c1.347-1.302,2.316-2.821,3.215-4.454c1.013-1.84,2.02-3.618,2.554-5.664c0.54-2.069,1.336-6.643-1.705-7.148
						c-0.434-0.072-0.62,0.591-0.183,0.664c2.26,0.375,1.662,3.629,1.442,5.203c-0.262,1.866-1.031,3.516-1.925,5.152
						c-0.856,1.566-1.659,3.143-2.759,4.558c-0.684,0.881-0.891,1.148-1.824,0.336c-0.511-0.444-0.98-0.887-1.552-1.252
						C396.728,41.066,396.383,41.662,396.757,41.9L396.757,41.9z"/>
				</g>
				<path style="fill:#FFA18D;" d="M374.246,26.289c0,5.047,2.18,9.636,5.736,12.045c3.556,2.409,5.048,5.047,9.98,5.047
					c4.932,0,11.242-5.276,11.242-11.93c3.441-0.688,4.589-7.457,1.032-6.998c-2.868-7.8-9.406-14.913-20.877-10.439
					C374.476,18.144,374.016,22.045,374.246,26.289z"/>
				<path style="fill:#18252D;" d="M374.217,29.042c2.581,3.441,11.443,3.441,14.626-0.086c3.183-3.527,5.248-3.958,6.108-2.495
					c0.86,1.463,1.778,4.044,3.671,4.818c0.344,0.172,1.377-1.376,1.377-1.376c-1.118-2.323,0.833-5.393,2.237-5.45
					c-2.209-7.112-6.252-13.565-17.953-11.586C372.668,14.932,373.184,25.343,374.217,29.042z"/>
				<g>
					<path style="fill:#18252D;" d="M393.402,46.335c0.212,1.917,1.002,3.484,1.805,5.207c1.111,2.382,2.17,4.787,3.306,7.158
						c1.769,3.694,3.381,8.276,6.76,10.818c0.355,0.267,0.697-0.331,0.347-0.594c-3.234-2.433-4.804-7.038-6.512-10.571
						c-0.867-1.793-1.705-3.602-2.526-5.416c-0.965-2.133-2.23-4.241-2.492-6.601C394.042,45.899,393.353,45.894,393.402,46.335
						L393.402,46.335z"/>
				</g>
				<g>
					<path style="fill:#18252D;" d="M378.393,49.606c0.474,0.736,0.667,1.735,0.936,2.569c0.278,0.866,0.536,1.737,0.835,2.597
						c0.145,0.416,0.81,0.237,0.664-0.183c-0.342-0.982-0.637-1.979-0.956-2.968c-0.254-0.791-0.432-1.658-0.886-2.363
						C378.748,48.887,378.152,49.232,378.393,49.606L378.393,49.606z"/>
				</g>
				<g>
					<path style="fill:#18252D;" d="M415.341,44.614c0.081,5.464,0.824,10.881,2.053,16.196c1.295,5.598,0.159,11.308,1.228,16.933
						c0.083,0.436,0.746,0.251,0.664-0.183c-1.028-5.409,0.079-10.911-1.086-16.3c-1.189-5.506-2.088-10.993-2.172-16.646
						C416.023,44.171,415.335,44.17,415.341,44.614L415.341,44.614z"/>
				</g>
				<g>
					<path style="fill:#18252D;" d="M385.475,91.423c0.62-3.851,1.461-7.166,4.99-9.346c3.353-2.072,7.477-2.307,11.283-2.704
						c0.437-0.046,0.441-0.734,0-0.688c-4.194,0.438-8.393,0.798-12.066,3.068c-3.438,2.123-4.268,5.753-4.87,9.488
						C384.741,91.674,385.405,91.86,385.475,91.423L385.475,91.423z"/>
				</g>
				<g>
					<path style="fill:#18252D;" d="M374.637,94.086c1.552,2.012,2.279,4.916,2.534,7.397c0.045,0.437,0.733,0.441,0.688,0
						c-0.266-2.586-1.004-5.64-2.628-7.745C374.964,93.392,374.366,93.734,374.637,94.086L374.637,94.086z"/>
				</g>
				<g>
					<path style="fill:#18252D;" d="M377.241,95.036c0.688,3.181,1.48,6.327,1.537,9.602c0.007,0.398,0.555,0.457,0.676,0.091
						c0.019-0.057,0.038-0.115,0.057-0.172c0.14-0.422-0.525-0.602-0.664-0.183c-0.019,0.057-0.038,0.115-0.057,0.172
						c0.226,0.031,0.451,0.061,0.676,0.091c-0.058-3.333-0.861-6.545-1.561-9.785C377.811,94.419,377.147,94.603,377.241,95.036
						L377.241,95.036z"/>
				</g>
				<g>
					<path style="fill:#18252D;" d="M379.019,94.577c0.396,1.793,0.99,3.386,1.192,5.243c0.147,1.351,0.641,3.166,0.299,4.497
						c-0.11,0.43,0.554,0.613,0.664,0.183c0.375-1.46-0.165-3.195-0.275-4.68c-0.143-1.93-0.807-3.566-1.217-5.426
						C379.587,93.961,378.923,94.144,379.019,94.577L379.019,94.577z"/>
				</g>
				<g>
					<path style="fill:#18252D;" d="M380.395,92.398c0.284,1.171,0.732,2.246,0.946,3.441c0.239,1.336,0.245,2.686,0.247,4.038
						c0.001,0.444,0.689,0.444,0.688,0c-0.001-1.23,0.021-2.487-0.184-3.705c-0.232-1.377-0.706-2.614-1.032-3.958
						C380.954,91.784,380.291,91.966,380.395,92.398L380.395,92.398z"/>
				</g>
				<path style="fill:#4376CF;" d="M365.642,81.581c0.803-2.122,5.333-5.334,9.922-6.367c1.262,1.893,2.181,2.982,2.639,3.097
					c-5.22,2.466-9.407,4.875-10.726,6.022C367.248,84.391,365.642,81.581,365.642,81.581z"/>
				<path style="fill:#4376CF;" d="M417.836,82.297c2.323,0,9.55-0.344,12.131-1.204c0.344,0.946,0.086,3.269-0.086,3.613
					c-0.172,0.344-7.915,1.893-12.217,1.291C417.664,85.137,417.836,82.297,417.836,82.297z"/>
				<path style="fill:#4376CF;" d="M389.674,129.53c-1.893,0.172-1.951,0.688-2.008,3.441s-2.294,5.851-5.62,9.235
					c-3.326,3.384-0.344,3.671,3.154,1.147c3.499-2.524,8.316-7.227,8.316-7.227s-0.057,1.376,0.287,1.319
					c0.344-0.057,3.269-2.237,3.613-2.925c0.344-0.688,0.517-3.958,0.287-4.99c-0.23-1.032-2.982,0.459-5.85,2.409
					C390.879,129.99,390.534,129.53,389.674,129.53z"/>
				<path style="fill:#4376CF;" d="M373.681,126.859c-1.881-0.268-2.056,0.222-2.745,2.887c-0.688,2.666-3.576,5.168-7.592,7.696
					c-4.014,2.529-1.178,3.494,2.807,1.841c3.984-1.652,9.755-5.122,9.755-5.122s-0.372,1.326-0.023,1.35
					c0.348,0.024,3.695-1.426,4.189-2.017c0.493-0.59,0.413-3.996,0.427-5.053c0.014-1.058-2.009,0.025-5.249,1.263
					C374.748,127.583,374.519,127.057,373.681,126.859z"/>
				<g>
					<path style="fill:#18252D;" d="M402.092,50.379c1.562,0.054,3.086-0.082,4.617-0.395c1.45-0.297,2.697-1.186,4.164-1.425
						c0.438-0.071,0.251-0.734-0.183-0.663c-1.273,0.207-2.406,0.871-3.613,1.291c-1.548,0.537-3.363,0.56-4.985,0.504
						C401.648,49.675,401.65,50.363,402.092,50.379L402.092,50.379z"/>
				</g>
				<g>
					<path style="fill:#18252D;" d="M401.76,50.212c0.172,1.224,0.71,2.403,1.179,3.539c0.43,1.042,0.852,2.081,1.523,2.996
						c0.259,0.354,0.857,0.011,0.594-0.347c-0.711-0.971-1.144-2.081-1.6-3.187c-0.422-1.023-0.878-2.083-1.032-3.183
						C402.362,49.591,401.699,49.778,401.76,50.212L401.76,50.212z"/>
				</g>
				<g>
					<path style="fill:#18252D;" d="M404.414,56.87c1.072,0.699,2.121,1.128,3.364,1.404c0.776,0.172,1.835,0.491,2.575,0.059
						c0.383-0.223,0.037-0.818-0.347-0.594c-0.654,0.381-1.815-0.079-2.498-0.229c-1.01-0.222-1.884-0.672-2.747-1.234
						C404.387,56.033,404.043,56.629,404.414,56.87L404.414,56.87z"/>
				</g>
				<g>
					<path style="fill:#18252D;" d="M410.535,48.405c0.264,1.19,0.682,2.308,1.214,3.403c0.431,0.887,1.118,2.113,1.285,3.112
						c0.169-0.13,0.337-0.259,0.506-0.389c-0.03-0.021-0.06-0.041-0.09-0.062c-0.366-0.253-0.709,0.343-0.347,0.594
						c0.03,0.021,0.059,0.041,0.089,0.062c0.275,0.191,0.55-0.122,0.506-0.389c-0.132-0.789-0.641-1.704-0.96-2.442
						c-0.586-1.356-1.216-2.618-1.539-4.073C411.103,47.789,410.44,47.973,410.535,48.405L410.535,48.405z"/>
				</g>
				<g>
					<path style="fill:#18252D;" d="M413.324,54.334c-0.604,0.862-1.229,1.655-1.98,2.394c-0.196,0.193-0.401,0.376-0.607,0.558
						c-0.131,0.116-0.557,0.59-0.729,0.577c-0.443-0.034-0.44,0.655,0,0.688c0.538,0.041,1.215-0.773,1.564-1.093
						c0.909-0.833,1.641-1.77,2.346-2.777C414.173,54.317,413.576,53.974,413.324,54.334L413.324,54.334z"/>
				</g>
				<g>
					<path style="fill:#18252D;" d="M403.295,51.966c1.034,0.773,2.219,1.716,3.546,1.887c0.864,0.111,1.402-0.314,2.023-0.882
						c0.482-0.441,2.514-2.49,1.402-3.147c-0.382-0.226-0.729,0.369-0.347,0.594c0.204,0.121-1.545,2.069-1.732,2.24
						c-1.422,1.301-3.321-0.371-4.546-1.286C403.286,51.106,402.944,51.704,403.295,51.966L403.295,51.966z"/>
				</g>
				<g>
					<path style="fill:#18252D;" d="M391.252,69.736c1.996,0.048,3.921,0.485,5.875,0.849c2.007,0.374,4.054,0.528,6.069,0.86
						c1.935,0.318,3.886,0.7,5.759,1.286c1.319,0.412,2.594,0.828,3.982,0.606c0.438-0.07,0.251-0.733-0.183-0.664
						c-1.711,0.274-3.437-0.604-5.067-1.012c-1.828-0.458-3.685-0.788-5.546-1.078c-1.804-0.281-3.625-0.437-5.421-0.772
						c-1.824-0.339-3.608-0.719-5.469-0.764C390.807,69.037,390.809,69.726,391.252,69.736L391.252,69.736z"/>
				</g>
				<g>
					<path style="fill:#18252D;" d="M402.694,71.285c1.011,0.035,1.928,0.468,2.926,0.589c1.217,0.147,2.467,0.161,3.693,0.208
						c1.148,0.044,2.307-0.166,3.453-0.22c0.934-0.044,1.829,0.011,2.753-0.16c0.436-0.08,0.251-0.744-0.183-0.663
						c-1.896,0.35-4.092,0.321-6.023,0.355c-1.022,0.018-2.068-0.095-3.088-0.157c-1.22-0.074-2.318-0.598-3.531-0.64
						C402.25,70.581,402.252,71.27,402.694,71.285L402.694,71.285z"/>
				</g>
				<g>
					<path style="fill:#18252D;" d="M391.579,90.666c-0.721,5.365-1.017,10.79-1.393,16.188c-0.366,5.242-1.03,10.544-1.142,15.794
						c-0.009,0.444,0.679,0.443,0.688,0c0.107-5.027,0.745-10.103,1.095-15.122c0.388-5.559,0.674-11.152,1.416-16.678
						C392.301,90.415,391.638,90.228,391.579,90.666L391.579,90.666z"/>
				</g>
				<g>
					<path style="fill:#18252D;" d="M368.752,86.49c0.363,1.735,0.899,3.427,1.262,5.162c0.091,0.435,0.754,0.25,0.664-0.183
						c-0.363-1.735-0.899-3.427-1.262-5.162C369.325,85.873,368.661,86.057,368.752,86.49L368.752,86.49z"/>
				</g>
				<g>
					<path style="fill:#18252D;" d="M356.283,95.52c2.238,4.812,4.7,9.515,6.914,14.338c1.135,2.473,2.171,4.988,3.082,7.552
						c0.352,0.991,0.668,1.981,1.087,2.945c0.37,0.85,0.957,1.799,1.103,2.739c0.141-0.141,0.282-0.282,0.423-0.424
						c-0.02-0.004-0.041-0.007-0.062-0.01c-0.434-0.074-0.62,0.59-0.183,0.664c0.021,0.004,0.041,0.007,0.062,0.011
						c0.275,0.046,0.465-0.152,0.423-0.423c-0.091-0.59-0.415-1.18-0.644-1.723c-0.552-1.315-1.081-2.612-1.547-3.962
						c-0.837-2.427-1.841-4.795-2.889-7.137c-2.254-5.037-4.849-9.914-7.176-14.917C356.69,94.771,356.096,95.12,356.283,95.52
						L356.283,95.52z"/>
				</g>
				<g>
					<path style="fill:#18252D;" d="M366.117,81.27c0.329-1.37,2.477-2.306,3.585-3.028c1.615-1.053,3.411-1.521,5.118-2.358
						c0.399-0.195,0.05-0.789-0.347-0.594c-0.995,0.488-2.121,0.697-3.097,1.205c-1.044,0.542-2.021,1.162-3,1.811
						c-1.059,0.702-2.598,1.435-2.922,2.783C365.35,81.519,366.013,81.702,366.117,81.27L366.117,81.27z"/>
				</g>
				<g>
					<path style="fill:#18252D;" d="M369.486,67.116c-2.097-1.232-4.364-1.974-6.798-2.112c-0.444-0.025-0.441,0.663,0,0.688
						c2.315,0.131,4.457,0.846,6.451,2.018C369.522,67.936,369.869,67.341,369.486,67.116L369.486,67.116z"/>
				</g>
			</g>
			<g>
				<ellipse style="opacity:0.42;fill:#FFA18D;" cx="115.672" cy="469.271" rx="64.195" ry="6.966"/>
				<path style="fill:#FF886F;" d="M51.477,467.497c-1.368-9.574,0-36.7,0-39.775c0-3.075,1.845-6.356,10.046-6.356
					c8.201,0,108.458,0,108.458,0c4.51,0,10.456,2.255,9.841,10.046c-0.615,7.791,0.41,32.189-0.205,34.649
					c-0.615,2.46-4.716,2.255-10.456,2.87c-5.741,0.615-104.563,0.205-109.073,0.205C55.577,469.138,51.682,468.932,51.477,467.497z
					"/>
				<g>
					<path style="fill:#18252D;" d="M86.096,408.791c0.511,7.154,2.939,14.819,18.652,16.225c15.713,1.405,40.496-1.279,44.84-4.472
						c4.344-3.193,6.261-15.203-7.026-16.863c-15.586-1.405-25.039-2.683-25.039-2.683L86.096,408.791z"/>
					<path style="fill:#FFA18D;" d="M150.609,395.889c2.363,0.192,4.982,0.702,6.324,1.469c1.341,0.767,9.197,5.813,9.07,15.394
						c-0.127,1.597-0.767,2.235-1.086,1.98c-0.702,0.639-2.236-1.277-2.938-2.555c-0.702-1.278-4.407-8.495-12.456-8.623
						C148.438,402.148,150.609,395.889,150.609,395.889z"/>
					<path style="fill:#FFA18D;" d="M136.62,364.717c0.128-2.108,0.831-9.39,5.877-9.709c5.046-0.319,5.669,0.08,5.669,0.08
						c-0.064-1.597,2.012-4.679,3.21-4.551c2.363,0.252,3.002,7.984,0.255,8.303s-6.515,1.214-6.515,1.214
						c-0.255,4.407-0.639,6.77-0.639,6.77L136.62,364.717z"/>
					<path style="fill:#FFA18D;" d="M127.869,329.203c3.577-6.898,18.269-6.898,21.335,0.256c3.066,7.154-0.331,9.409,1.533,9.965
						c2.411,0.718,3.082,1.053,3.082,1.053L150.737,343c0,0,2.555,16.736-12.392,10.604c-4.727,6.259-9.964,10.092-9.964,10.092
						l-5.877-9.709l3.194-6.005C125.698,347.982,118.543,339.806,127.869,329.203z"/>
					<path style="fill:none;stroke:#000000;stroke-miterlimit:10;" d="M149.843,335.111c-1.102,0.144-1.725,1.916-1.198,5.461
						c0.527,3.545,2.778,0.575,2.922-1.868C151.711,336.261,151.28,335.016,149.843,335.111z"/>
					<g>
						<path style="fill:#18252D;" d="M132.134,349.658c0.841,1.082,2.014,1.755,3.113,2.541c1.208,0.863,2.555,1.74,3.954,2.253
							c0.465,0.171,0.663-0.57,0.203-0.74c-1.187-0.435-2.336-1.2-3.38-1.903c-1.176-0.792-2.472-1.564-3.35-2.693
							C132.373,348.727,131.834,349.273,132.134,349.658L132.134,349.658z"/>
					</g>
					<path style="fill:#F05448;" d="M124.165,350.777c4.695-1.261,5.238-3.88,5.174-4.791c-3.258-2.683-3.023-7.073-0.096-7.569
						c2.826-0.479,4.407,3.066,4.599,5.749c1.294,0.527,2.252,0.655,2.204,0.367c-0.048-0.287-1.214-2.731,0.51-5.366
						c1.725-2.635,3.273-3.673,2.124-6.164c-1.15-2.491-2.491-3.785,0.671-5.078c3.162-1.294,10.875-2.587,11.258-6.132
						c-0.048-1.485-2.299-1.677-3.641-0.862c3.401-2.635-0.048-5.892-5.414-2.252c3.354-4.503-1.485-6.084-3.162-4.216
						c-1.677,1.868-2.347,5.509-5.845,5.174c-3.497-0.335-12.264,0.383-10.348,9.533c-4.982,2.874-6.707,8.527-2.874,13.893
						C123.159,348.429,124.931,348.286,124.165,350.777z"/>
					<g>
						<path style="fill:#18252D;" d="M132.453,340.046c5.413-0.08,10.827-0.159,16.24-0.239c0.494-0.008,0.494-0.774,0-0.767
							c-5.413,0.08-10.827,0.159-16.24,0.24C131.959,339.287,131.958,340.053,132.453,340.046L132.453,340.046z"/>
					</g>
					<path style="fill:#4376CF;" d="M121.738,354.37c-34.078,21.558-37.991,41.922-35.802,56.242
						c9.198,2.683,34.493-8.527,34.493-8.527c0.096,2.395,1.245,4.822,4.982,4.791c11.306-0.096,22.708-3.449,22.708-3.449
						l1.15-7.665l-4.024,0.096c0,0,0.862-17.151-0.287-27.019c-1.533,0.383-8.527-1.246-8.527-1.246
						c-0.383,2.491-1.629,8.336-1.629,8.336c-0.287-4.024-2.204-11.018-4.024-13.797C128.956,359.352,124.102,354.37,121.738,354.37
						z"/>
					<path style="fill:#4376CF;" d="M123.591,351.815c-0.958,0.447-3.003,1.98-2.939,2.299c0.064,0.319,8.369,8.176,10.412,13.222
						c2.108-2.747,2.235-2.938,2.235-3.258C132.916,362.482,129.531,355.009,123.591,351.815z"/>
					<path style="fill:#4376CF;" d="M135.918,364.079c-0.255,1.533-1.149,4.47-0.702,4.726c0.447,0.256,11.114,1.662,11.497,1.406
						c0.383-0.256,0.51-4.407,0.064-4.599C146.33,365.42,136.045,363.568,135.918,364.079z"/>
					<g>
						<path style="fill:#18252D;" d="M125.309,364.417c4.802,1.357,6.458,7.052,7.167,11.389c1.027,6.287,1.536,12.562,2.037,18.901
							c0.256,0,0.511,0,0.766,0c-0.026-0.207-0.07-0.305-0.208-0.463c-0.326-0.373-0.866,0.171-0.542,0.542
							c-0.006-0.026-0.011-0.053-0.016-0.079c0.06,0.478,0.806,0.501,0.766,0c-0.559-7.06-1.191-14.037-2.385-21.028
							c-0.687-4.02-3.201-8.82-7.382-10.002C125.036,363.542,124.834,364.282,125.309,364.417L125.309,364.417z"/>
					</g>
					<g>
						<path style="fill:#18252D;" d="M113.831,376.592c-0.424,1.948,0.181,3.866,0.642,5.761c0.661,2.72,1.478,5.397,2.104,8.126
							c0.569,2.475,1.088,4.958,1.753,7.411c0.648,2.392,1.548,4.391,2.63,6.592c0.218,0.444,0.879,0.055,0.662-0.386
							c-2.081-4.234-3.127-8.548-4.153-13.147c-0.509-2.279-1.123-4.524-1.732-6.778c-0.608-2.249-1.673-5.046-1.166-7.374
							C114.675,376.314,113.936,376.109,113.831,376.592L113.831,376.592z"/>
					</g>
					<g>
						<path style="fill:#18252D;" d="M119.568,400.412c-1.157-0.823-3.02-0.82-4.377-1.115c-2.132-0.465-4.267-0.811-6.452-0.853
							c-0.494-0.01-0.494,0.757,0,0.766c2.118,0.041,4.179,0.391,6.248,0.826c1.25,0.263,3.133,0.284,4.194,1.038
							C119.585,401.361,119.967,400.696,119.568,400.412L119.568,400.412z"/>
					</g>
					<g>
						<path style="fill:#18252D;" d="M107.404,403.029c1.981-0.62,4.063-0.792,6.036-1.437c0.468-0.153,0.268-0.894-0.204-0.74
							c-1.973,0.646-4.056,0.817-6.036,1.437C106.73,402.437,106.93,403.177,107.404,403.029L107.404,403.029z"/>
					</g>
					<g>
						<path style="fill:#18252D;" d="M134.411,394.241c-1.73,0.341-3.078,1.425-4.596,2.246c-0.907,0.49-2.477,1.077-2.857,2.142
							c-0.167,0.466,0.574,0.665,0.739,0.204c0.288-0.807,2.064-1.446,2.766-1.825c1.382-0.746,2.571-1.715,4.153-2.027
							C135.099,394.885,134.894,394.146,134.411,394.241L134.411,394.241z"/>
					</g>
					<g>
						<path style="fill:#18252D;" d="M131.846,396.352c-1.296,1.097-2.583,2.204-3.833,3.354c0.181,0.18,0.361,0.361,0.542,0.542
							c0.064-0.064,0.128-0.128,0.192-0.192c0.35-0.35-0.192-0.891-0.542-0.542c-0.064,0.064-0.128,0.128-0.192,0.192
							c-0.351,0.351,0.179,0.875,0.542,0.542c1.25-1.149,2.537-2.256,3.833-3.353C132.766,396.574,132.221,396.035,131.846,396.352
							L131.846,396.352z"/>
					</g>
					<g>
						<path style="fill:#18252D;" d="M134.507,394.885c3.938,1.331,7.996,0.905,12.078,0.876c0.494-0.004,0.494-0.77,0-0.767
							c-4.011,0.028-8.001,0.461-11.875-0.849C134.241,393.987,134.041,394.727,134.507,394.885L134.507,394.885z"/>
					</g>
					<g>
						<path style="fill:#18252D;" d="M134.91,374.484c-0.757,2.275-1.127,4.638-1.533,6.994c-0.083,0.484,0.655,0.69,0.739,0.204
							c0.406-2.356,0.776-4.72,1.533-6.994C135.805,374.218,135.065,374.018,134.91,374.484L134.91,374.484z"/>
					</g>
					<path style="fill:#4376CF;" d="M151.056,395.505c0.256-0.831-2.618-1.022-3.96-0.895c-1.341,0.128-1.725,5.557-0.448,9.581
						c0.256,0.255,4.152-0.001,4.152-0.32C150.29,401.829,150.608,398.444,151.056,395.505z"/>
					<g>
						<path style="fill:#18252D;" d="M160.563,406.94c0.704,1.298,3.567,4.205,2.118,5.654c-0.35,0.35,0.192,0.892,0.542,0.542
							c0.016-0.017,0.033-0.033,0.049-0.049c0.35-0.35-0.192-0.892-0.542-0.542c-0.016,0.017-0.033,0.033-0.05,0.049
							c0.181,0.181,0.361,0.362,0.542,0.542c1.967-1.966-1.066-4.862-1.999-6.582C160.989,406.119,160.327,406.506,160.563,406.94
							L160.563,406.94z"/>
					</g>
					<g>
						<path style="fill:#18252D;" d="M162.032,406.621c1.479,2.235,3.058,5.063,2.261,7.817c-0.138,0.476,0.602,0.677,0.739,0.204
							c0.857-2.96-0.741-5.994-2.338-8.407C162.422,405.825,161.758,406.208,162.032,406.621L162.032,406.621z"/>
					</g>
					<g>
						<path style="fill:#18252D;" d="M163.079,405.124c0.679,1.615,1.981,3.151,2.158,4.945c0.048,0.487,0.815,0.492,0.767,0
							c-0.188-1.902-1.468-3.443-2.185-5.148C163.63,404.472,162.888,404.669,163.079,405.124L163.079,405.124z"/>
					</g>
					<g>
						<path style="fill:#18252D;" d="M87.277,414.444c1.588,0.166,3.391,0.233,4.942-0.204c0.854-0.241,1.249-0.553,2.048,0.475
							c0.54,0.695,1.221,1.26,1.894,1.823c1.273,1.065,2.695,1.99,4.12,2.835c1.216,0.72,2.147,0.881,2.286,2.536
							c0.07,0.835,0.154,1.666,0.23,2.5c0.045,0.488,0.812,0.493,0.767,0c-0.134-1.469,0.052-3.291-0.828-4.544
							c-0.392-0.559-1.518-0.838-2.068-1.154c-1.051-0.603-2.053-1.299-3.038-2.002c-1.128-0.805-2.192-1.713-3.034-2.814
							c-0.213-0.278-0.525-0.647-0.9-0.695c-0.88-0.112-1.703,0.358-2.573,0.459c-1.283,0.148-2.563,0.155-3.846,0.02
							C86.786,413.626,86.79,414.393,87.277,414.444L87.277,414.444z"/>
					</g>
					<g>
						<path style="fill:#18252D;" d="M95.818,411.863c0.36,0.886,1.062,1.52,1.727,2.181c0.351,0.349,0.893-0.193,0.542-0.542
							c-0.555-0.551-1.228-1.1-1.53-1.843C96.374,411.208,95.632,411.405,95.818,411.863L95.818,411.863z"/>
					</g>
					<g>
						<path style="fill:#18252D;" d="M98.731,415.404c0.353,0.658,0.946,1.186,1.575,1.575c0.421,0.261,0.806-0.402,0.387-0.662
							c-0.521-0.323-1.007-0.755-1.3-1.299C99.159,414.582,98.498,414.969,98.731,415.404L98.731,415.404z"/>
					</g>
					<g>
						<path style="fill:#18252D;" d="M102.815,418.548c0.417,0.409,0.878,0.786,1.419,1.018c0.449,0.193,0.84-0.467,0.387-0.662
							c-0.486-0.209-0.888-0.53-1.264-0.898C103.004,417.659,102.462,418.201,102.815,418.548L102.815,418.548z"/>
					</g>
					<g>
						<path style="fill:#18252D;" d="M106.552,421.422c0.586,0.478,1.224,0.869,1.898,1.21c0.44,0.222,0.828-0.439,0.387-0.662
							c-0.613-0.309-1.21-0.655-1.743-1.09C106.714,420.57,106.169,421.109,106.552,421.422L106.552,421.422z"/>
					</g>
					<g>
						<path style="fill:#18252D;" d="M110.745,423.916c0.677,0.281,1.383,0.466,2.108,0.575c0.483,0.073,0.691-0.665,0.204-0.74
							c-0.724-0.109-1.431-0.293-2.108-0.575C110.493,422.987,110.295,423.729,110.745,423.916L110.745,423.916z"/>
					</g>
					<g>
						<path style="fill:#18252D;" d="M109.586,381.565c-2.88,3.178-5.139,7.173-6.974,11.032c-1.851,3.891-2.255,8.871-2.463,13.129
							c-0.016,0.324,0.436,0.522,0.654,0.271c0.162-0.186,0.209-0.285,0.24-0.527c0.061-0.49-0.706-0.484-0.767,0
							c-0.005-0.005-0.01-0.01-0.015-0.015c0.218,0.091,0.436,0.18,0.654,0.271c0.216-4.397,0.72-9.296,2.631-13.314
							c1.707-3.589,3.911-7.357,6.582-10.304C110.458,381.742,109.918,381.199,109.586,381.565L109.586,381.565z"/>
					</g>
					<g>
						<path style="fill:#18252D;" d="M141.413,355.946c2.317-1.392,6.075-0.466,8.621-0.427c0.494,0.007,0.494-0.759,0-0.767
							c-2.742-0.042-6.5-0.975-9.008,0.531C140.603,355.538,140.988,356.201,141.413,355.946L141.413,355.946z"/>
					</g>
					<g>
						<path style="fill:#18252D;" d="M150.404,354.903c0.238-0.652,0.524-1.282,0.671-1.964c0.104-0.482-0.635-0.687-0.739-0.204
							c-0.147,0.681-0.433,1.312-0.671,1.964C149.495,355.165,150.236,355.363,150.404,354.903L150.404,354.903z"/>
					</g>
					<g>
						<path style="fill:#18252D;" d="M150.615,354.692c0.401-0.152,0.823-0.189,1.193-0.422c0.417-0.263,0.033-0.926-0.387-0.662
							c-0.308,0.195-0.674,0.217-1.01,0.344C149.954,354.126,150.152,354.867,150.615,354.692L150.615,354.692z"/>
					</g>
					<g>
						<path style="fill:#18252D;" d="M149.937,355.467c0.373,0.163,0.738,0.345,1.102,0.527c0.441,0.22,0.829-0.441,0.387-0.662
							c-0.365-0.182-0.729-0.364-1.102-0.527C149.875,354.609,149.485,355.269,149.937,355.467L149.937,355.467z"/>
					</g>
				</g>
			</g>
		</g>
	</g>
</g>
</svg>
